<?xml version="1.0" encoding="UTF-8"?>
<svg width="26px" height="26px" viewBox="0 0 26 26" version="1.1" xmlns="http://www.w3.org/2000/svg" xmlns:xlink="http://www.w3.org/1999/xlink">
    <!-- Generator: Sketch 52.6 (67491) - http://www.bohemiancoding.com/sketch -->
    <title>Shape</title>
    <desc>Created with Sketch.</desc>
    <g id="ASSETS" stroke="none" stroke-width="1" fill="none" fill-rule="evenodd">
        <g id="events" transform="translate(-401.000000, -254.000000)" fill="#FFFFFF" fill-rule="nonzero">
            <g id="Group-5" transform="translate(284.000000, 57.000000)">
                <g id="Group" transform="translate(117.000000, 185.000000)">
                    <g id="calendar" transform="translate(0.000000, 12.000000)">
                        <path d="M22.6484375,2.03125 L20.3125,2.03125 L20.3125,0.8125 C20.3125,0.363796875 19.9487539,0 19.5,0 C19.0512461,0 18.6875,0.363796875 18.6875,0.8125 L18.6875,2.03125 L7.3125,2.03125 L7.3125,0.8125 C7.3125,0.363796875 6.94875391,0 6.5,0 C6.05124609,0 5.6875,0.363796875 5.6875,0.8125 L5.6875,2.03125 L3.3515625,2.03125 C1.50348047,2.03125 0,3.53473047 0,5.3828125 L0,22.6484375 C0,24.4965195 1.50348047,26 3.3515625,26 L22.6484375,26 C24.4965195,26 26,24.4965195 26,22.6484375 L26,5.3828125 C26,3.53473047 24.4965195,2.03125 22.6484375,2.03125 Z M3.3515625,3.65625 L5.6875,3.65625 L5.6875,4.46875 C5.6875,4.91745312 6.05124609,5.28125 6.5,5.28125 C6.94875391,5.28125 7.3125,4.91745312 7.3125,4.46875 L7.3125,3.65625 L18.6875,3.65625 L18.6875,4.46875 C18.6875,4.91745312 19.0512461,5.28125 19.5,5.28125 C19.9487539,5.28125 20.3125,4.91745312 20.3125,4.46875 L20.3125,3.65625 L22.6484375,3.65625 C23.6004844,3.65625 24.375,4.43076562 24.375,5.3828125 L24.375,7.3125 L1.625,7.3125 L1.625,5.3828125 C1.625,4.43076562 2.39951563,3.65625 3.3515625,3.65625 Z M22.6484375,24.375 L3.3515625,24.375 C2.39951562,24.375 1.625,23.6004844 1.625,22.6484375 L1.625,8.9375 L24.375,8.9375 L24.375,22.6484375 C24.375,23.6004844 23.6004844,24.375 22.6484375,24.375 Z" id="Shape"></path>
                    </g>
                </g>
            </g>
        </g>
    </g>
</svg>