<?xml version="1.0" encoding="UTF-8"?>
<svg width="70px" height="50px" viewBox="0 0 70 50" version="1.1" xmlns="http://www.w3.org/2000/svg" xmlns:xlink="http://www.w3.org/1999/xlink">
    <!-- Generator: Sketch 52.6 (67491) - http://www.bohemiancoding.com/sketch -->
    <title>delivery-truck</title>
    <desc>Created with Sketch.</desc>
    <g id="pages" stroke="none" stroke-width="1" fill="none" fill-rule="evenodd">
        <g id="Product" transform="translate(-1128.000000, -943.000000)" fill="#000000" fill-rule="nonzero">
            <g id="delivery-truck" transform="translate(1162.919070, 968.000000) scale(-1, 1) translate(-1162.919070, -968.000000) translate(1128.000000, 943.000000)">
                <path d="M63.3302009,41.5331526 C63.3326941,41.6163794 63.3339496,41.6999172 63.3339496,41.7837483 C63.3288556,46.3193471 59.6532967,49.994906 55.1176978,50 C50.5799873,50 46.9014461,46.3214588 46.9014461,41.7837483 C46.9014461,41.6999172 46.9027015,41.6163794 46.9051947,41.5331526 L44.8710048,41.5331526 L25.1903603,41.5331526 C25.1928535,41.6163794 25.1941089,41.6999172 25.1941089,41.7837483 C25.189015,46.3193471 21.5134561,49.994906 16.9778572,50 C12.4401467,50 8.76160546,46.3214588 8.76160546,41.7837483 C8.76160546,41.6999172 8.76286094,41.6163794 8.76535414,41.5331526 L1.02703147,41.5331526 C0.459817651,41.5331526 -2.42472709e-13,41.0733349 -2.42472709e-13,40.5061211 L-2.42472709e-13,2.05406294 C-2.42472709e-13,0.919635301 0.919635301,1.86517468e-14 2.05406294,1.86517468e-14 L6.73732643,1.86517468e-14 C7.30454025,1.86517468e-14 7.7643579,0.459817651 7.7643579,1.02703147 C7.7643579,1.59424529 7.30454025,2.05406294 6.73732643,2.05406294 L2.05406294,2.05406294 L2.05406294,26.9236299 L43.8439734,26.9236299 L43.8439734,2.05406294 L34.3439323,2.05406294 C33.7767185,2.05406294 33.3169008,1.59424529 33.3169008,1.02703147 C33.3169008,0.459817651 33.7767185,1.86517468e-14 34.3439323,1.86517468e-14 L43.8439734,1.86517468e-14 C44.978401,1.86517468e-14 45.8980363,0.919635301 45.8980363,2.05406294 L45.8980363,7.83214198 L60.0813409,7.83214198 C60.3933308,7.83202492 60.6884588,7.9737317 60.8834525,8.21727878 L69.6132199,19.124353 C69.7589236,19.3065609 69.8382492,19.5329469 69.8381398,19.7662476 L69.8381398,40.5061211 C69.8381398,41.0733349 69.3783222,41.5331526 68.8111084,41.5331526 L63.3302009,41.5331526 Z M61.1985969,40.7869733 C61.1806515,40.7237107 61.1686174,40.6579626 61.1631293,40.5903638 C60.604878,37.7600128 58.111035,35.6250456 55.1176978,35.6215594 C52.1408955,35.6215594 49.6570898,37.7323287 49.081323,40.538825 C49.0780948,40.6420244 49.0596419,40.7413862 49.0281355,40.8347389 C48.9803189,41.1440785 48.955509,41.4610161 48.955509,41.7837483 C48.955509,45.1870312 51.7144149,47.9459371 55.1176978,47.9459371 C58.5209807,47.9459371 61.2798866,45.1870312 61.2798866,41.7837483 C61.2794914,41.4443716 61.2516972,41.1114156 61.1985969,40.7869733 Z M63.0063271,39.4790896 L67.7840769,39.4790896 L67.7840769,25.8349766 L53.5679073,25.8349766 C52.2029264,25.8338449 51.0965142,24.7278922 51.0948155,23.3629118 L51.0948155,16.1069345 C51.0965142,14.7419542 52.2029264,13.6360015 53.5679073,13.6348698 L62.5885007,13.6348698 L59.5883658,9.88620491 L45.8980363,9.88620491 L45.8980363,39.4790896 L47.2290685,39.4790896 C48.2253434,36.0632092 51.3800681,33.5674965 55.1176978,33.5674965 C58.8553275,33.5674965 62.0100523,36.0632092 63.0063271,39.4790896 Z M43.8439734,28.9776929 L2.05406294,28.9776929 L2.05406294,39.4790896 L9.08922792,39.4790896 C10.0855027,36.0632092 13.2402275,33.5674965 16.9778572,33.5674965 C20.7154869,33.5674965 23.8702117,36.0632092 24.8664865,39.4790896 L43.8439734,39.4790896 L43.8439734,28.9776929 Z M23.0635218,40.8165416 C23.0376508,40.7348515 23.0217187,40.6487407 23.0171451,40.5596288 C22.4469608,37.7445711 19.9603498,35.6250329 16.9778572,35.6215594 C13.991939,35.6215594 11.5020414,37.7452762 10.9362466,40.5646276 C10.9314731,40.6496265 10.9163634,40.7318637 10.8921543,40.8101026 C10.8418139,41.127244 10.8156684,41.4524428 10.8156684,41.7837483 C10.8156684,45.1870312 13.5745743,47.9459371 16.9778572,47.9459371 C20.3811401,47.9459371 23.140046,45.1870312 23.140046,41.7837483 C23.1396628,41.4546732 23.1135187,41.1316349 23.0635218,40.8165416 Z M64.2324103,15.6889327 L53.5679073,15.6889327 C53.3368846,15.688932 53.1494447,15.8759125 53.1488785,16.1069345 L53.1488785,23.3629118 C53.1494447,23.5939339 53.3368846,23.7809143 53.5679073,23.7809136 L67.7840769,23.7809136 L67.7840769,20.1267357 L64.2324103,15.6889327 Z M16.9152083,2.05406294 L13.9265467,2.05406294 C13.3593329,2.05406294 12.8995152,1.59424529 12.8995152,1.02703147 C12.8995152,0.459817651 13.3593329,3.86357613e-14 13.9265467,3.86357613e-14 L16.9152083,3.86357613e-14 C17.4824221,3.86357613e-14 17.9422398,0.459817651 17.9422398,1.02703147 C17.9422398,1.59424529 17.4824221,2.05406294 16.9152083,2.05406294 Z M27.154712,2.05406294 L24.1044286,2.05406294 C23.5372147,2.05406294 23.0773971,1.59424529 23.0773971,1.02703147 C23.0773971,0.459817651 23.5372147,3.86357613e-14 24.1044286,3.86357613e-14 L27.154712,3.86357613e-14 C27.7219258,3.86357613e-14 28.1817435,0.459817651 28.1817435,1.02703147 C28.1817435,1.59424529 27.7219258,2.05406294 27.154712,2.05406294 Z M16.9778572,45.5971161 C14.8717923,45.5971161 13.1644894,43.8898132 13.1644894,41.7837483 C13.1644894,39.6776833 14.8717923,37.9703804 16.9778572,37.9703804 C19.0839221,37.9703804 20.791225,39.6776833 20.791225,41.7837483 C20.7889609,43.8888746 19.0829835,45.5948519 16.9778572,45.5971161 Z M16.9778572,40.0244433 C16.0062199,40.0244433 15.2185523,40.812111 15.2185523,41.7837483 C15.2185523,42.7553855 16.0062199,43.5430532 16.9778572,43.5430532 C17.9494945,43.5430532 18.7371621,42.7553855 18.7371621,41.7837483 C18.7354661,40.8128143 17.9487911,40.0261393 16.9778572,40.0244433 Z M55.1176978,45.5971161 C53.5752411,45.5975315 52.1844336,44.6686977 51.5938731,43.2437727 C51.0033126,41.8188478 51.3293146,40.1784818 52.4198494,39.0876533 C53.5103841,37.9968248 55.1506622,37.6703809 56.5757462,38.2605576 C58.0008301,38.8507343 58.9300386,40.2412915 58.9300386,41.7837483 C58.9283405,43.8887084 57.2226575,45.5948509 55.1176978,45.5971161 Z M55.1176978,40.0244433 C54.4060321,40.0240279 53.7642105,40.4524053 53.4915799,41.1097795 C53.2189493,41.7671537 53.3692144,42.5240305 53.8722912,43.0274011 C54.375368,43.5307718 55.1321569,43.6814788 55.7896902,43.4092321 C56.4472235,43.1369854 56.8759756,42.4954141 56.8759757,41.7837483 C56.8748451,40.8129805 56.0884647,40.0261408 55.1176978,40.0244433 Z"></path>
            </g>
        </g>
    </g>
</svg>