<?xml version="1.0" encoding="UTF-8"?>
<svg width="50px" height="50px" viewBox="0 0 50 50" version="1.1" xmlns="http://www.w3.org/2000/svg" xmlns:xlink="http://www.w3.org/1999/xlink">
    <!-- Generator: Sketch 52.6 (67491) - http://www.bohemiancoding.com/sketch -->
    <title>Combined Shape</title>
    <desc>Created with Sketch.</desc>
    <g id="pages" stroke="none" stroke-width="1" fill="none" fill-rule="evenodd">
        <g id="Product" transform="translate(-815.000000, -943.000000)" fill="#000000" fill-rule="nonzero">
            <g id="big-dollar-coin" transform="translate(815.000000, 943.000000)">
                <path d="M34.8343257,2.00882739 C44.0471815,5.95434998 50,14.9789883 50,25 C50,38.7850553 38.7850553,50 25,50 C11.2149447,50 0,38.7850553 0,25 C0,11.2149447 11.2149447,0 25,0 C27.5047169,0 29.9775793,0.36939023 32.349671,1.098063 C32.7539788,1.2222651 32.9810956,1.65061688 32.8568934,2.05492459 C32.7325382,2.45907916 32.3043396,2.68588966 31.9000319,2.56199385 C29.6737359,1.87819311 27.3521826,1.53146862 25,1.53146862 C12.0593965,1.53146862 1.53146862,12.0593965 1.53146862,25 C1.53146862,37.9406035 12.0593965,48.4685314 25,48.4685314 C37.9406035,48.4685314 48.4685314,37.9406035 48.4685314,25 C48.4685314,15.5926477 42.8802024,7.12071648 34.2315397,3.41655334 C33.8426998,3.25023585 33.6625991,2.79998407 33.8290697,2.41129734 C33.9953872,2.02245746 34.445639,1.84235675 34.8343257,2.00882739 Z M40.439654,14.0379008 C40.2087085,14.0379008 39.9803666,13.9336078 39.8295169,13.735742 C39.541754,13.3574693 39.2356134,12.9853224 38.9193651,12.6297154 C38.6383406,12.3136203 38.6666728,11.8296762 38.9827679,11.5486517 C39.2987099,11.2676272 39.7828071,11.2959594 40.0638316,11.6120545 C40.4059617,11.9967594 40.7372184,12.3993825 41.0484128,12.8084378 C41.3044743,13.1450546 41.2392338,13.6254763 40.902617,13.8815378 C40.7641722,13.9869029 40.6012239,14.0379008 40.439654,14.0379008 Z M25,43.6217395 C35.2680376,43.6217395 43.6217395,35.2680376 43.6218927,25 C43.6218927,21.7624753 42.778666,18.574264 41.183182,15.7802526 C40.9733708,15.4130065 41.1010953,14.9452959 41.4683415,14.7356379 C41.8355877,14.5259798 42.3034513,14.6535512 42.5129562,15.0207973 C44.2402997,18.0457542 45.1533613,21.4966124 45.1533613,25 C45.1533613,36.1124894 36.1126426,45.1532081 25.0001531,45.1532081 C20.7785068,45.1532081 16.7361953,43.8617206 13.3104532,41.4184156 C12.9660259,41.1729212 12.8860832,40.6946435 13.1315777,40.3503694 C13.3770721,40.0059421 13.8553497,39.9259994 14.1996239,40.1714939 C17.3644038,42.4287255 21.0990431,43.6217395 25,43.6217395 Z M10.5852048,37.9874665 C10.8879761,37.6921993 11.372686,37.6983252 11.6681062,38.0009434 C11.8990517,38.2377084 12.1396454,38.4717168 12.3833021,38.6962301 C12.6943434,38.9827679 12.7140993,39.4673246 12.4275615,39.7782127 C12.2767119,39.9420799 12.0707293,40.0250855 11.8642874,40.0250855 C11.6786734,40.0250855 11.4927531,39.9581603 11.345579,39.8224722 C11.0820132,39.5795812 10.8215104,39.3264295 10.5717279,39.0703679 C10.2764607,38.7675966 10.2824334,38.2827336 10.5852048,37.9874665 Z M25,4.84679188 C29.9596611,4.84679188 34.726204,6.66495142 38.4216378,9.96603203 C38.7371203,10.2478223 38.7642273,10.7317663 38.4825903,11.0472489 C38.2008,11.3625783 37.716856,11.3899915 37.4013734,11.1082013 C33.9871173,8.05797528 29.5827667,6.3782605 25,6.3782605 C14.7319624,6.3782605 6.37841364,14.7319624 6.37841364,25 C6.37841364,28.8547065 7.54569902,32.5530501 9.75392362,35.6950111 C9.99712084,36.0409698 9.9136558,36.5186349 9.56769704,36.7618321 C9.43384668,36.8560174 9.28008723,36.9011958 9.1280124,36.9011958 C8.88711239,36.9011958 8.65004104,36.7877139 8.500876,36.5756055 C6.11055978,33.1743669 4.84694503,29.1715674 4.84694503,25 C4.84694503,13.8875106 13.8875106,4.84679188 25,4.84679188 Z M25.6262175,32.9334669 C27.81974,32.7192144 30.1506353,31.4023046 30.1507884,28.9864128 C30.1507884,28.7030911 30.1215373,28.438147 30.0611975,28.1767254 C29.6374401,26.30037 27.7348967,25.921791 25.6375504,25.6919175 L25.6375504,30.7652136 C25.6375504,31.1843766 25.2755112,31.5205339 24.848844,31.4790311 C24.4866517,31.4436542 24.2030237,31.1174514 24.2030237,30.7365751 L24.2030237,25.5429056 C23.1682104,25.4180909 21.694325,25.1676958 20.5570564,24.4633734 C19.3674116,23.7264307 18.7064297,22.6311243 18.5365898,21.114511 C18.4561877,20.0449333 18.7398157,18.9284927 19.3145759,18.0485108 C19.3419892,18.0065486 19.4268326,17.8987332 19.4620563,17.8544737 C19.5991228,17.6818772 19.8044927,17.5829443 20.0251773,17.5829443 C20.1967018,17.5829443 20.362713,17.6446625 20.4928879,17.7564597 C20.7867767,18.0091521 20.8276669,18.4451612 20.585848,18.7486983 C20.5425074,18.8032185 20.5098872,18.8453339 20.4980949,18.8624864 C20.0207361,19.5622144 19.9597836,20.4187648 19.9928634,21.0138935 C20.2276375,23.377409 22.1897551,23.8451195 24.2031769,24.0994965 L24.2031769,16.920431 C23.5944181,16.9873562 23.0196579,17.1270261 22.4935985,17.3362247 C22.4108992,17.3693045 22.3239117,17.3859975 22.2349334,17.3859975 C21.9632509,17.3859975 21.7192879,17.2334632 21.5983019,16.9878156 C21.4981439,16.7845898 21.5042697,16.5487436 21.6151481,16.3410764 C21.6958565,16.1897673 21.8347607,16.0690876 22.0064383,16.0009373 C22.7004999,15.7252729 23.4391272,15.5497666 24.2031769,15.4788596 L24.2031769,14.6988826 C24.2030237,14.2792602 24.5656755,13.9417246 24.9932615,13.9852183 C25.3546881,14.0215141 25.6377035,14.3452665 25.6377035,14.7223141 L25.6377035,15.4716617 C26.8844721,15.5704414 28.0833058,15.9776589 29.0205646,16.6221009 C30.1226094,17.3797185 30.8316793,18.4401073 31.071201,19.6884074 L31.0811556,19.7795298 C31.1148479,20.1444787 30.8698129,20.4703753 30.511143,20.5386788 L30.4803604,20.5444984 C30.4367136,20.5527683 30.3921479,20.5570564 30.3480416,20.5570564 C29.9901373,20.5570564 29.6893569,20.2887431 29.6483135,19.9331361 C29.5107877,19.3067654 29.2334387,18.7563556 28.824996,18.3048786 C28.0859093,17.5472611 26.8985616,17.0282464 25.6375504,16.9097107 L25.6375504,24.2275272 C27.955275,24.4780755 30.8048786,24.8146923 31.4735178,27.8517477 C31.5695409,28.300468 31.6105843,28.6396883 31.6105843,28.986566 C31.6105843,30.4651989 30.9485304,31.7775144 29.6960954,32.7816983 C28.6193198,33.6452935 27.1435966,34.221432 25.6375504,34.3681467 L25.6375504,35.2761544 C25.6375504,35.4510481 25.5848679,35.6152216 25.4891511,35.7385048 C25.3508595,35.9164614 25.1436518,36.0186104 24.9203636,36.0186104 C24.8963196,36.0186104 24.8721224,36.0173852 24.8474657,36.0149349 C24.4860391,35.9786391 24.2030237,35.6548866 24.2030237,35.277839 L24.2030237,34.3692187 C22.8960684,34.2457823 21.625562,33.8083949 20.618162,33.1340893 C19.427292,32.337113 18.6728906,31.2523738 18.4367381,29.997029 C18.4309185,29.9663996 18.420964,29.9029968 18.3947759,29.683231 C18.3702724,29.4775548 18.4341346,29.2701939 18.570129,29.1139841 C18.7059703,28.9577743 18.9030703,28.8658862 19.1105843,28.8619044 C19.4828843,28.8619044 19.8023487,29.1447667 19.854878,29.5201296 C19.8832102,29.7216709 19.892399,29.7625611 19.8933179,29.7665429 C20.339741,31.5715318 22.3909901,32.7161515 24.2145097,32.9300976 C24.2760748,32.5948592 24.5719545,32.3424731 24.9200573,32.3424731 C25.2698448,32.3424731 25.5660308,32.5963906 25.6262175,32.9334669 Z" id="Combined-Shape"></path>
            </g>
        </g>
    </g>
</svg>