<?xml version="1.0" encoding="UTF-8"?>
<svg width="30px" height="30px" viewBox="0 0 30 30" version="1.1" xmlns="http://www.w3.org/2000/svg" xmlns:xlink="http://www.w3.org/1999/xlink">
    <!-- Generator: Sketch 52.6 (67491) - http://www.bohemiancoding.com/sketch -->
    <title>facebook (1)</title>
    <desc>Created with Sketch.</desc>
    <g id="ASSETS" stroke="none" stroke-width="1" fill="none" fill-rule="evenodd">
        <g id="Footer" transform="translate(-1141.000000, -273.000000)" fill="#FFFFFF" fill-rule="nonzero">
            <g id="Group-3" transform="translate(1141.000000, 92.000000)">
                <g id="facebook-(1)" transform="translate(0.000000, 181.000000)">
                    <path d="M15,21.992168 C14.6763867,21.992168 14.4140625,22.2544922 14.4140625,22.5781055 C14.4140625,22.5788672 14.4140625,22.5796875 14.4140625,22.5804492 C14.4140625,22.5812109 14.4140625,22.5820313 14.4140625,22.582793 L14.4140625,22.5874805 C14.4140625,22.9110938 14.6763867,23.173418 15,23.173418 C15.3236133,23.173418 15.5859375,22.9110938 15.5859375,22.5874805 C15.5859375,22.5866602 15.5859375,22.585957 15.5859375,22.5851367 C15.5859375,22.5843164 15.5859375,22.5836133 15.5859375,22.582793 C15.5859375,22.5819727 15.5859375,22.5812109 15.5859375,22.5804492 C15.5859375,22.5796875 15.5859375,22.5788672 15.5859375,22.5781055 C15.5859375,22.2544922 15.3236133,21.992168 15,21.992168 Z" id="Path"></path>
                    <path d="M24.2578125,0 L5.7421875,0 C2.57589844,0 0,2.57589844 0,5.7421875 L0,24.2578125 C0,27.4241016 2.57589844,30 5.7421875,30 L15,30 C15.3236133,30 15.5859375,29.7376758 15.5859375,29.4140625 L15.5859375,24.8730469 C15.5859375,24.5494336 15.3236133,24.2871094 15,24.2871094 C14.6763867,24.2871094 14.4140625,24.5494336 14.4140625,24.8730469 L14.4140625,28.828125 L5.7421875,28.828125 C3.22212891,28.828125 1.171875,26.7778711 1.171875,24.2578125 L1.171875,5.7421875 C1.171875,3.22212891 3.22212891,1.171875 5.7421875,1.171875 L24.2578125,1.171875 C26.7778711,1.171875 28.828125,3.22212891 28.828125,5.7421875 L28.828125,24.2578125 C28.828125,26.7778711 26.7778711,28.828125 24.2578125,28.828125 L20.5078125,28.828125 L20.5078125,18.4863867 L23.9051367,18.4863867 C24.2060742,18.4863867 24.4580273,18.258457 24.4881445,17.9591016 L24.9094922,13.7722852 C24.9260742,13.6074609 24.872168,13.4433984 24.7610742,13.3205859 C24.6499805,13.1977734 24.4920703,13.1276953 24.3264844,13.1276953 L20.5078125,13.1276953 L20.5078125,10.9291992 C20.5078125,10.5312891 20.6345508,10.3833398 20.9754492,10.3833398 L24.3001758,10.3833398 C24.6237891,10.3833398 24.8861133,10.1210156 24.8861133,9.79740234 L24.8861133,5.71576172 C24.8861133,5.39214844 24.6237891,5.12982422 24.3001758,5.12982422 L19.9339453,5.12982422 C17.4599414,5.12982422 16.1479102,6.21650391 15.4829297,7.12810547 C14.5528711,8.40298828 14.4140039,9.90861328 14.4140039,10.6925977 L14.4140039,13.1539453 L11.5429102,13.1539453 C11.2192969,13.1539453 10.9569727,13.4162695 10.9569727,13.7398828 L10.9569727,17.9003906 C10.9569727,18.2240039 11.2192969,18.4863281 11.5429102,18.4863281 L14.4140039,18.4863281 L14.4140039,20.15625 C14.4140039,20.4798633 14.6763281,20.7421875 14.9999414,20.7421875 C15.3235547,20.7421875 15.5858789,20.4798633 15.5858789,20.15625 L15.5858789,17.9003906 C15.5858789,17.5767773 15.3235547,17.3144531 14.9999414,17.3144531 L12.1288477,17.3144531 L12.1288477,14.3257617 L14.9999414,14.3257617 C15.3235547,14.3257617 15.5858789,14.0634375 15.5858789,13.7398242 L15.5858789,10.6925391 C15.5858789,9.37230469 16.0095703,6.30164062 19.9339453,6.30164062 L23.7142383,6.30164062 L23.7142383,9.21140625 L20.9754492,9.21140625 C20.2191211,9.21140625 19.3359375,9.66128906 19.3359375,10.9291406 L19.3359375,13.7135742 C19.3359375,14.0371875 19.5982617,14.2995117 19.921875,14.2995117 L23.6786133,14.2995117 L23.3752148,17.3144531 L19.921875,17.3144531 C19.5982617,17.3144531 19.3359375,17.5767773 19.3359375,17.9003906 L19.3359375,29.4140625 C19.3359375,29.7376758 19.5982617,30 19.921875,30 L24.2578125,30 C27.4241016,30 30,27.4241016 30,24.2578125 L30,5.7421875 C30,2.57589844 27.4241016,0 24.2578125,0 Z" id="Path"></path>
                    <path d="M3.3984375,6.00585938 C3.07482422,6.00585938 2.8125,6.26818359 2.8125,6.59179688 L2.8125,11.484375 C2.8125,11.8079883 3.07482422,12.0703125 3.3984375,12.0703125 C3.72205078,12.0703125 3.984375,11.8079883 3.984375,11.484375 L3.984375,6.59179688 C3.984375,6.26818359 3.72205078,6.00585938 3.3984375,6.00585938 Z" id="Path"></path>
                    <path d="M3.3984375,13.4403516 C3.07482422,13.4403516 2.8125,13.7026758 2.8125,14.0262891 L2.8125,14.0332031 C2.8125,14.3568164 3.07482422,14.6191406 3.3984375,14.6191406 C3.72205078,14.6191406 3.984375,14.3568164 3.984375,14.0332031 L3.984375,14.0262891 C3.984375,13.7026758 3.72205078,13.4403516 3.3984375,13.4403516 Z" id="Path"></path>
                </g>
            </g>
        </g>
    </g>
</svg>