<?xml version="1.0" encoding="UTF-8"?>
<svg width="17px" height="26px" viewBox="0 0 17 26" version="1.1" xmlns="http://www.w3.org/2000/svg" xmlns:xlink="http://www.w3.org/1999/xlink">
    <!-- Generator: Sketch 52.6 (67491) - http://www.bohemiancoding.com/sketch -->
    <title>Combined Shape</title>
    <desc>Created with Sketch.</desc>
    <g id="ASSETS" stroke="none" stroke-width="1" fill="none" fill-rule="evenodd">
        <g id="events" transform="translate(-1069.000000, -255.000000)" fill="#FFFFFF" fill-rule="nonzero">
            <g id="Group-5" transform="translate(284.000000, 57.000000)">
                <g id="Group" transform="translate(117.000000, 185.000000)">
                    <g id="hourglass" transform="translate(668.000000, 13.000000)">
                        <path d="M2.71105861,22.0601367 C2.71105861,20.7301758 3.39300001,19.4365234 4.63125001,18.4174961 C5.57415626,17.641457 6.77807814,17.214082 8.02115236,17.214082 C9.26427736,17.214082 10.4681992,17.6415078 11.4111563,18.4175469 C12.649457,19.436625 13.3313985,20.7302773 13.3313985,22.0601367 L13.3313985,22.3091172 C13.3313985,22.5195039 13.160875,22.6899766 12.9505391,22.6899766 L3.09191798,22.6899766 C2.88158205,22.6899766 2.71105861,22.5195039 2.71105861,22.3091172 L2.71105861,22.0601367 Z M5.11529689,19.0056445 C4.08326955,19.8549609 3.51853126,20.862918 3.47541798,21.9283086 L12.5670391,21.9283086 C12.5239766,20.8630195 11.9591875,19.8551133 10.9271094,19.0056953 C10.1201445,18.3415781 9.0881172,17.9758008 8.02115236,17.9758008 C6.9542383,17.9758008 5.92221095,18.3415273 5.11529689,19.0056445 Z M1.23235939,2.56628125 C0.549707046,2.54698438 5.0795995e-05,1.97930078 1.47450177e-08,1.28369922 C-0.000101547755,0.575199219 0.56610939,1.95399252e-14 1.26810939,1.95399252e-14 L14.7745,1.95399252e-14 C15.4737578,1.95399252e-14 16.0426094,0.575808594 16.0426094,1.28359766 C16.0426094,1.97919922 15.4929531,2.54698438 14.81025,2.56628125 L14.81025,4.05833594 C14.81025,6.61725391 13.8052891,9.04221094 11.9805156,10.8865352 C11.9805664,10.8864336 11.9805156,10.8864844 11.9805156,10.8864844 C11.6110313,11.2599297 11.2075742,11.6079844 10.7813164,11.9207969 C10.4362578,12.1741445 10.2301875,12.5777031 10.2301875,13.0003555 C10.2301875,13.4231094 10.4350899,13.8258555 10.7783203,14.0776797 C12.4222617,15.2836836 13.6356797,16.9234102 14.2872539,18.8195313 C14.3556055,19.0184414 14.2497774,19.235125 14.0508672,19.3034766 C14.0098867,19.317543 13.9680938,19.3242461 13.9270625,19.3242461 C13.7689297,19.3242461 13.621207,19.2250195 13.5669219,19.0670898 C12.9660274,17.3185391 11.8459453,15.8056133 10.3277891,14.6918281 C9.78976173,14.2970547 9.46851955,13.6647773 9.46851955,13.0004063 C9.46851955,12.3361367 9.79082814,11.7030469 10.3306836,11.30675 C10.7247969,11.0175 11.0976836,10.6959023 11.439086,10.350793 C11.439086,10.3507422 11.4391367,10.3507422 11.4391367,10.3506914 C13.1218242,8.65002734 14.048582,6.41529688 14.048582,4.05833594 L14.048582,2.56724609 L1.99407814,2.56719531 L1.99407814,4.05823438 C1.99407814,5.63235156 2.41876173,7.18767969 3.22217189,8.55598047 C3.32871095,8.73742188 3.26797658,8.97076172 3.08658595,9.07730078 C2.90519533,9.18378906 2.6718047,9.12305469 2.56531642,8.94171484 C1.6933008,7.45651563 1.23235939,5.76783594 1.23235939,4.05823438 L1.23235939,2.56628125 Z M1.26810939,0.76171875 C0.992925796,0.76171875 0.761718765,0.990640625 0.761667983,1.28364844 C0.761718765,1.57132422 0.988863296,1.80542578 1.26810939,1.80542578 L14.7745,1.80542578 C15.0537461,1.80542578 15.2809414,1.57132422 15.2809414,1.28354688 C15.2809414,0.995820313 15.0537461,0.76171875 14.7745,0.76171875 L1.26810939,0.76171875 Z M14.8101485,23.4337188 C15.4929531,23.4529648 16.0426094,24.0208008 16.0426602,24.7164531 C16.0426602,25.4241914 15.4737578,26 14.7745,26 L1.26810939,26 C0.56895314,26 5.0795995e-05,25.4242422 1.47450186e-08,24.7164531 C-5.0766505e-05,24.3747969 0.131066421,24.0533008 0.36907814,23.8110742 C0.600386733,23.5757031 0.90573439,23.4427578 1.23225783,23.4336172 C1.23225783,21.7168555 1.12962892,20.2730938 1.97214064,18.2473789 C1.97229298,18.2470234 1.97244533,18.2467188 1.97254689,18.2463633 C2.65976955,16.5945 3.7979297,15.1530234 5.26398439,14.0775273 C5.60731642,13.8256523 5.81232033,13.4228555 5.81232033,13.0001523 C5.81232033,12.5774492 5.60640236,12.1739414 5.26144533,11.9207461 C4.6689297,11.4859063 4.1251133,10.9871836 3.6451797,10.4383906 C3.50669923,10.2800547 3.52279689,10.0394531 3.68113283,9.90097266 C3.83946876,9.76249219 4.08001955,9.77864063 4.2185508,9.93692578 C4.66192189,10.443875 5.16440236,10.9047148 5.71212892,11.30675 C6.25183205,11.7028438 6.57403908,12.3359336 6.57403908,13.0002031 C6.57403908,13.6645742 6.25269533,14.2969531 5.71451564,14.6917773 C4.36043361,15.6851094 3.30966798,17.0154258 2.67581642,18.5390156 C2.67571486,18.5393203 2.67556251,18.539625 2.67546095,18.5399297 C1.89028126,20.4277734 1.99397658,21.7822109 1.99397658,23.4327539 L8.02120314,23.4328047 L14.0484297,23.4328047 C14.0484297,21.8368516 14.0678281,21.4677734 13.9633711,20.7216445 C13.9342227,20.5132891 14.079457,20.3207773 14.2877617,20.2916289 C14.4964727,20.2627852 14.6885781,20.4077148 14.7177266,20.6160195 C14.8319844,21.4322773 14.8101485,21.8642227 14.8101485,23.4337188 Z M14.7745,25.2382813 C15.0537461,25.2382813 15.2808906,25.0041797 15.2809414,24.7164531 C15.2809414,24.4286758 15.0537461,24.1945742 14.7745,24.1945742 L8.02120314,24.1945742 L1.26810939,24.1945742 C0.992214858,24.1945742 0.761667983,24.4241055 0.761667983,24.7165039 C0.761718765,25.0042305 0.988863296,25.2382813 1.26810939,25.2382813 L14.7745,25.2382813 Z M8.40206251,11.8066406 L8.40206251,12.3144531 C8.40206251,12.5248398 8.23153908,12.6953125 8.02120314,12.6953125 C7.8108672,12.6953125 7.64034376,12.5248398 7.64034376,12.3144531 L7.64034376,11.8066406 C7.64034376,11.5962539 7.8108672,11.4257813 8.02120314,11.4257813 C8.23153908,11.4257813 8.40206251,11.5962539 8.40206251,11.8066406 Z M8.02120314,16.65625 C7.8108672,16.65625 7.64034376,16.4857773 7.64034376,16.2753906 L7.64034376,15.7675781 C7.64034376,15.5571914 7.8108672,15.3867188 8.02120314,15.3867188 C8.23153908,15.3867188 8.40206251,15.5571914 8.40206251,15.7675781 L8.40206251,16.2753906 C8.40206251,16.4857773 8.23153908,16.65625 8.02120314,16.65625 Z M8.02120314,13.40625 C8.23153908,13.40625 8.40206251,13.5767227 8.40206251,13.7871094 L8.40206251,14.2949219 C8.40206251,14.5053086 8.23153908,14.6757813 8.02120314,14.6757813 C7.8108672,14.6757813 7.64034376,14.5053086 7.64034376,14.2949219 L7.64034376,13.7871094 C7.64034376,13.5767227 7.8108672,13.40625 8.02120314,13.40625 Z M13.2414649,5.26601562 C12.9850195,6.97424609 12.1990781,8.53901953 10.9686485,9.79133594 C10.1962656,10.5773789 9.1219883,11.0282148 8.02140626,11.0282148 C6.92072267,11.0282148 5.84644533,10.5773281 5.07406251,9.79128516 C3.84363283,8.53891797 3.05769142,6.97414453 2.80119533,5.26601562 C2.7666133,5.03572266 2.94526173,4.82863672 3.17783986,4.82863672 L12.8648203,4.82863672 C13.0977031,4.82863672 13.2759961,5.03602734 13.2414649,5.26601562 Z M8.02135548,10.2665469 C8.91896486,10.2665469 9.79519533,9.89878906 10.4252891,9.25747266 C11.436293,8.22854297 12.1166094,6.96820312 12.4090078,5.59035547 L3.63360158,5.59035547 C3.9260508,6.96810156 4.6063672,8.22844141 5.61737111,9.25747266 C6.24746486,9.89873828 7.12369533,10.2665469 8.02135548,10.2665469 Z" id="Combined-Shape"></path>
                    </g>
                </g>
            </g>
        </g>
    </g>
</svg>