<?xml version="1.0" encoding="UTF-8"?>
<svg width="19px" height="26px" viewBox="0 0 19 26" version="1.1" xmlns="http://www.w3.org/2000/svg" xmlns:xlink="http://www.w3.org/1999/xlink">
    <!-- Generator: Sketch 52.6 (67491) - http://www.bohemiancoding.com/sketch -->
    <title>Combined Shape</title>
    <desc>Created with Sketch.</desc>
    <g id="ASSETS" stroke="none" stroke-width="1" fill="none" fill-rule="evenodd">
        <g id="events" transform="translate(-867.000000, -254.000000)" fill="#FFFFFF" fill-rule="nonzero">
            <g id="Group-5" transform="translate(284.000000, 57.000000)">
                <g id="Group" transform="translate(117.000000, 185.000000)">
                    <g id="placeholder" transform="translate(466.000000, 12.000000)">
                        <path d="M9.11523438,0 C14.1413746,0 18.2304688,4.10048438 18.2304688,9.140625 C18.2304688,10.7929961 17.7858985,12.4123594 16.9447649,13.8236719 L9.89347283,25.6297031 C9.75740264,25.8576094 9.51270923,25.997918 9.24781039,26 C9.24578479,26 9.24380982,26 9.24178421,26 C8.97916418,26 8.73497718,25.8639062 8.59637498,25.6399102 L1.36065129,13.9471719 C0.470396734,12.5053906 0,10.8435234 0,9.140625 C0,4.10048438 4.08909414,0 9.11523438,0 Z M15.6410332,13.0415391 C16.3410326,11.8669687 16.716327,10.5178633 16.716327,9.140625 C16.716327,4.94050781 13.3036846,1.51328125 9.11523438,1.51328125 C4.92678418,1.51328125 1.50907769,4.94050781 1.50907769,9.140625 C1.50907769,10.5599609 1.91085697,11.9444609 2.65187488,13.1445234 L9.23028889,23.7750703 L15.6410332,13.0415391 Z M9.11523438,4.5703125 C11.6283045,4.5703125 13.6728516,6.62055469 13.6728516,9.140625 C13.6728516,11.6170742 11.692972,13.7109375 9.11523438,13.7109375 C6.56889365,13.7109375 4.55761719,11.6445977 4.55761719,9.140625 C4.55761719,6.62055469 6.60216426,4.5703125 9.11523438,4.5703125 Z M9.11523438,12.1976562 C10.8260626,12.1976562 12.1587099,10.8003086 12.1587099,9.140625 C12.1587099,7.46057812 10.7906145,6.08359375 9.11523438,6.08359375 C7.4398543,6.08359375 6.06669488,7.46057812 6.06669488,9.140625 C6.06669488,10.8248867 7.43109354,12.1976562 9.11523438,12.1976562 Z" id="Combined-Shape"></path>
                    </g>
                </g>
            </g>
        </g>
    </g>
</svg>