<?xml version="1.0" encoding="UTF-8"?>
<svg width="100px" height="100px" viewBox="0 0 100 100" version="1.1" xmlns="http://www.w3.org/2000/svg" xmlns:xlink="http://www.w3.org/1999/xlink">
    <!-- Generator: Sketch 52.6 (67491) - http://www.bohemiancoding.com/sketch -->
    <title>play</title>
    <desc>Created with Sketch.</desc>
    <g id="ASSETS" stroke="none" stroke-width="1" fill="none" fill-rule="evenodd">
        <g id="News" transform="translate(-1075.000000, -166.000000)" fill="#E7C671" fill-rule="nonzero">
            <g id="multimedia" transform="translate(1075.000000, 166.000000)">
                <path d="M85.3553197,14.6446229 C94.7989714,24.0882873 100,36.6447449 100,50 C100,63.3552551 94.7989714,75.9117127 85.3553197,85.3553771 C75.911668,94.7990418 63.3554875,100 50.0003816,100 C37.8837247,100 26.1959084,95.6108094 17.0880038,87.6411438 C8.06708838,79.7477723 2.17548898,68.8980102 0.499042455,57.0907594 C0.385346114,56.2896729 0.942381259,55.5480957 1.74359595,55.4344178 C2.54404783,55.3207398 3.28650683,55.8776855 3.40020297,56.6787719 C4.97821459,67.791748 10.5241471,78.0052186 19.017787,85.4370117 C27.5907854,92.9389953 38.594135,97.0703125 50.0003816,97.0703125 C62.5725861,97.0703125 74.3931751,92.1737672 83.2836071,83.2839965 C92.1740391,74.3934631 97.069843,62.5732422 97.069843,50 C97.069843,37.4267578 92.1740391,25.6065369 83.2836071,16.7160035 C74.3931751,7.82546992 62.5725861,2.9296875 50.0003816,2.9296875 C37.4274137,2.9296875 25.6068249,7.82623281 16.7163929,16.7160035 C7.82596088,25.6065369 2.93015696,37.4267578 2.93015696,50 C2.93015696,50.8094787 2.2746869,51.4648438 1.46507848,51.4648438 C0.655470056,51.4648438 0,50.8094787 0,50 C0,36.6447449 5.2010286,24.0882873 14.6446803,14.6446229 C24.088332,5.2009582 36.6445125,0 50.0003816,0 C63.3554875,0 75.911668,5.2009582 85.3553197,14.6446229 Z M37.6455062,31.11707 C37.4290471,31.2353051 36.9267706,31.5907786 36.9267706,32.3347392 L36.9267706,70.6652199 C36.9267706,71.4084128 37.4290471,71.764654 37.6447441,71.8828893 C37.8604408,72.0011246 38.4297892,72.2329884 39.0494414,71.8291461 L68.4451932,52.6635219 C68.8445757,52.4032507 69.0739918,51.9794465 69.0739918,51.4995958 C69.0739918,51.0205128 68.8445757,50.5967086 68.4451932,50.3364374 L55.347895,41.7973967 C54.669555,41.3551662 54.4751991,40.4422981 54.9149768,39.7589907 C55.3539924,39.0749153 56.2594622,38.8799039 56.9385643,39.3221344 L70.0358626,47.8611752 C71.266021,48.6634856 72,50.0239586 72,51.5003635 C72,52.9760005 71.266021,54.3364737 70.0358626,55.1387841 L40.6393486,74.3036405 C39.9297591,74.7666006 39.1165132,75 38.301743,75 C37.5967267,75 36.8894238,74.8249504 36.246144,74.472548 C34.860501,73.7132321 34,72.2544858 34,70.6652199 L34,32.3347392 C34,30.7454735 34.860501,29.2867272 36.246144,28.5274113 C37.6317871,27.7680953 39.3154423,27.8325872 40.6393486,28.6955509 L50.6582025,35.2276637 C51.3365426,35.6698941 51.5308983,36.5819945 51.0911206,37.2660698 C50.652105,37.9493774 49.7466354,38.1451564 49.0675331,37.7021582 L39.0494414,31.1708132 C38.4297892,30.7669709 37.8604408,30.9988347 37.6455062,31.11707 Z" id="play"></path>
            </g>
        </g>
    </g>
</svg>