<?xml version="1.0" encoding="utf-8"?>
<!-- Generator: Adobe Illustrator 22.0.0, SVG Export Plug-In . SVG Version: 6.00 Build 0)  -->
<svg version="1.1" id="Layer_1" xmlns="http://www.w3.org/2000/svg" xmlns:xlink="http://www.w3.org/1999/xlink" x="0px" y="0px"
	 width="15px" height="14.4px" viewBox="0 0 15 14.4" enable-background="new 0 0 15 14.4" xml:space="preserve">
<path id="Path" fill="#EBEBEB" d="M15,5.5c-0.1-0.3-0.4-0.5-0.7-0.6L9.9,4.5l-1.7-4C8.1,0.2,7.8,0,7.5,0S6.9,0.2,6.8,0.5l-1.7,4
	L0.7,4.9C0.4,4.9,0.1,5.2,0,5.5c-0.1,0.3,0,0.6,0.2,0.9l3.3,2.9l-1,4.3c-0.1,0.3,0.1,0.6,0.3,0.8c0.1,0.1,0.3,0.2,0.5,0.2
	c0.1,0,0.3,0,0.4-0.1l3.7-2.2l3.7,2.2c0.3,0.2,0.6,0.1,0.9,0c0.3-0.2,0.4-0.5,0.3-0.8l-1-4.3l3.3-2.9C15,6.1,15.1,5.8,15,5.5z"/>
</svg>
