<?xml version="1.0" encoding="utf-8"?>
<!-- Generator: Adobe Illustrator 22.0.0, SVG Export Plug-In . SVG Version: 6.00 Build 0)  -->
<svg version="1.1" id="Capa_1" xmlns="http://www.w3.org/2000/svg" xmlns:xlink="http://www.w3.org/1999/xlink" x="0px" y="0px"
	 width="36.6px" height="30px" viewBox="0 0 36.6 30" style="enable-background:new 0 0 36.6 30;" xml:space="preserve">
<style type="text/css">
	.st0{fill:#084C35;}
</style>
<g>
	<g>
		<g>
			<path class="st0" d="M10.2,8.4L10.2,8.4c0.1,0.1,0.2,0.1,0.3,0.1c0.3,0,0.5-0.2,0.7-0.4c0.2-0.4,0-0.8-0.4-0.9l0,0
				c-0.4-0.2-0.8,0-0.9,0.3C9.7,7.8,9.8,8.2,10.2,8.4z"/>
			<path class="st0" d="M36.4,3.6c-0.2-0.2-0.5-0.3-0.8-0.2c-0.4,0.2-0.9,0.4-1.3,0.5c0.6-0.7,1-1.6,1.3-2.5c0.1-0.3,0-0.6-0.2-0.8
				c-0.2-0.2-0.6-0.2-0.8-0.1c-1.2,0.7-2.6,1.3-4,1.6C29.1,0.8,27.1,0,25.1,0c-4.4,0-7.9,3.6-7.9,7.9c0,0.3,0,0.6,0,0.9
				c-1.1-0.1-2.2-0.3-3.3-0.6c-0.4-0.1-0.8,0.1-0.9,0.5s0.1,0.8,0.5,0.9c1.5,0.4,3,0.6,4.5,0.7c0.2,0,0.4-0.1,0.6-0.3
				c0.1-0.2,0.2-0.4,0.2-0.6c-0.1-0.5-0.2-1-0.2-1.5c0-3.6,2.9-6.5,6.5-6.5c1.8,0,3.5,0.7,4.7,2c0.2,0.2,0.4,0.3,0.7,0.2
				c1-0.2,1.9-0.5,2.9-0.9c-0.5,0.7-1.2,1.3-1.9,1.8c-0.3,0.2-0.4,0.5-0.3,0.8c0.1,0.3,0.4,0.5,0.8,0.5c0.7-0.1,1.3-0.2,2-0.4
				c-0.6,0.6-1.2,1.2-1.9,1.7c-0.2,0.1-0.3,0.4-0.3,0.6l0,0.9c0,9.7-7.4,19.8-19.8,19.8c-2.8,0-5.6-0.6-8.2-1.8
				c3-0.2,5.8-1.3,8.2-3.2c0.2-0.2,0.3-0.5,0.2-0.8c-0.1-0.3-0.4-0.5-0.7-0.5c-2.4,0-4.5-1.4-5.6-3.5c0.1,0,0.2,0,0.2,0
				c0.7,0,1.4-0.1,2.1-0.3c0.3-0.1,0.5-0.4,0.5-0.7c0-0.3-0.2-0.6-0.6-0.7c-2.7-0.5-4.7-2.7-5.1-5.3c0.8,0.3,1.6,0.4,2.4,0.5
				c0.3,0,0.6-0.2,0.7-0.5c0.1-0.3,0-0.6-0.3-0.8C4,9.9,2.9,7.8,2.9,5.7c0-0.8,0.1-1.6,0.4-2.3c1.2,1.3,2.5,2.4,3.9,3.4
				c0.3,0.2,0.8,0.1,1-0.2c0.2-0.3,0.1-0.8-0.2-1C6.4,4.4,5,3.1,3.7,1.6C3.6,1.4,3.3,1.3,3.1,1.3c-0.2,0-0.4,0.1-0.6,0.4
				c-0.7,1.2-1.1,2.6-1.1,4c0,1.7,0.6,3.4,1.6,4.8c-0.2-0.1-0.4-0.2-0.6-0.3C2.3,10,2,10,1.8,10.1c-0.2,0.1-0.4,0.4-0.4,0.6v0.1
				c0,2.6,1.3,5,3.4,6.5c0,0,0,0,0,0c-0.2,0-0.5,0-0.7,0.2C4,17.8,3.9,18,4,18.3c0.8,2.6,2.9,4.5,5.5,5.2c-2.1,1.3-4.5,1.9-7.1,1.9
				c-0.5,0-1.1,0-1.6-0.1c-0.3,0-0.6,0.2-0.8,0.5c-0.1,0.3,0,0.7,0.3,0.8C3.8,28.8,7.7,30,11.8,30c3.3,0,6.3-0.7,9.1-1.9
				c2.5-1.2,4.8-2.9,6.7-5C31,19.1,33,13.9,33,8.8c0,0,0,0,0,0l0-0.6c1.4-1,2.5-2.3,3.5-3.7C36.7,4.2,36.6,3.9,36.4,3.6z"/>
		</g>
	</g>
</g>
<g>
	<g>
		<path class="st0" d="M26.9,17.4c-0.3-0.2-0.8-0.1-1,0.2l0,0c-0.2,0.3-0.1,0.8,0.2,1c0.1,0.1,0.2,0.1,0.4,0.1
			c0.2,0,0.5-0.1,0.6-0.3C27.4,18,27.3,17.6,26.9,17.4z"/>
	</g>
</g>
<g>
	<g>
		<path class="st0" d="M25.5,19.5c-0.3-0.3-0.8-0.2-1,0.1c-1.3,1.5-2.7,2.8-4.4,3.7c-0.3,0.2-0.5,0.6-0.3,1c0.1,0.2,0.4,0.4,0.6,0.4
			c0.1,0,0.2,0,0.4-0.1c1.8-1,3.4-2.4,4.8-4.1C25.9,20.2,25.8,19.8,25.5,19.5z"/>
	</g>
</g>
</svg>
