<?xml version="1.0" encoding="UTF-8"?>
<svg width="69px" height="74px" viewBox="0 0 69 74" version="1.1" xmlns="http://www.w3.org/2000/svg" xmlns:xlink="http://www.w3.org/1999/xlink">
    <!-- Generator: Sketch 52.6 (67491) - http://www.bohemiancoding.com/sketch -->
    <title>bell</title>
    <desc>Created with Sketch.</desc>
    <g id="ASSETS" stroke="none" stroke-width="1" fill="none" fill-rule="evenodd">
        <g id="Subscibe" transform="translate(-190.000000, -21.000000)" fill="#FFFFFF" fill-rule="nonzero">
            <g id="bell" transform="translate(225.093885, 59.425903) rotate(-13.000000) translate(-225.093885, -59.425903) translate(192.093885, 22.925903)">
                <path d="M62.6494571,32.423077 C61.1068499,32.423077 59.8553683,31.0969783 59.8553683,29.4623963 C59.8553683,21.1572021 56.8039225,13.3524123 51.2628161,7.47767595 C50.1704557,6.32018603 50.1704557,4.44922671 51.2628161,3.29119454 C52.3551764,2.13370448 54.1213721,2.13370448 55.2137324,3.29119454 C61.8113838,10.2816753 65.4435458,19.5762931 65.4435458,29.4623963 C65.4435458,31.0969783 64.1920643,32.423077 62.6494571,32.423077 Z M2.79401729,33.0929161 C1.25196129,33.0929161 0,31.7668174 0,30.1322354 C0,20.2461322 3.63258067,10.9515145 10.2295517,3.96103365 C11.3218841,2.8035436 13.0880346,2.8035436 14.180367,3.96103365 C15.273211,5.11906583 15.273211,6.99002515 14.180367,8.14751506 C8.63940248,14.0189985 5.58854632,21.8270412 5.58854632,30.1322354 C5.58854632,31.7668174 4.33658503,33.0929161 2.79401729,33.0929161 Z M33.0169026,72.1018818 C27.8409494,72.1018818 23.5111713,68.2286518 22.5169025,63.1018818 L43.5169025,63.1018818 C42.5221106,68.2286518 38.1923324,72.1018818 33.0169026,72.1018818 Z M60.9520382,51.5847547 C62.1655935,52.6246258 62.8458099,54.1006619 62.8458099,55.6621439 C62.8458099,58.6058392 60.4516491,61 57.5085124,61 L7.18366599,61 C4.23997071,61 1.8458099,58.6058392 1.8458099,55.6621439 C1.8458099,54.1006619 2.5260264,52.6246258 3.71277506,51.6087689 C8.35142674,47.6866342 10.995782,41.9891235 10.995782,35.95318 L10.995782,27.4499162 C10.995782,16.7172403 18.965707,7.83254136 29.2957261,6.34421892 L29.2957261,3.0498045 C29.2957261,1.36322517 30.6623022,-1.8189894e-12 32.3460892,-1.8189894e-12 C34.0293176,-1.8189894e-12 35.3958937,1.36322517 35.3958937,3.0498045 L35.3958937,6.34421892 C45.7231205,7.83254136 53.6958378,16.7172403 53.6958378,27.4499162 L53.6958378,35.95318 C53.6958378,41.9891235 56.3401932,47.6866342 60.9520382,51.5847547 Z"></path>
            </g>
        </g>
    </g>
</svg>