<svg xmlns="http://www.w3.org/2000/svg" width="30.906" height="23.875" viewBox="0 0 30.906 23.875">
  <defs>
    <style>
      .cls-1 {
        fill: #333;
        fill-rule: evenodd;
      }
    </style>
  </defs>
  <path class="cls-1" d="M13.955,18.127a0.481,0.481,0,0,1-.7.1,3.591,3.591,0,0,0-2.193-.7H5.181a0.5,0.5,0,1,1,0-1h5.882a4.666,4.666,0,0,1,2.792.9A0.481,0.481,0,0,1,13.955,18.127ZM5.181,14.042h5.882a5.363,5.363,0,0,1,2.792.8,0.751,0.751,0,0,1,.1.8,0.481,0.481,0,0,1-.7.1,3.591,3.591,0,0,0-2.193-.7H5.181A0.5,0.5,0,1,1,5.181,14.042Zm8.574-.9a0.445,0.445,0,0,1-.5,0,3.591,3.591,0,0,0-2.193-.7H5.181a0.5,0.5,0,1,1,0-1h5.882a5.363,5.363,0,0,1,2.792.8,0.585,0.585,0,0,1,.2.5A0.619,0.619,0,0,1,13.755,13.146Zm0.2-2.69a0.481,0.481,0,0,1-.7.1,3.591,3.591,0,0,0-2.193-.7H5.181a0.546,0.546,0,0,1-.5-0.4,0.471,0.471,0,0,1,.5-0.5h5.882a5.363,5.363,0,0,1,2.792.8A0.481,0.481,0,0,1,13.955,10.456Zm-0.7-5.08a3.591,3.591,0,0,0-2.193-.7H5.181a0.546,0.546,0,0,1-.5-0.4,0.471,0.471,0,0,1,.5-0.5h5.882a5.363,5.363,0,0,1,2.792.8A0.5,0.5,0,1,1,13.257,5.376Zm0.5,2.59h-0.5a3.591,3.591,0,0,0-2.193-.7H5.181a0.5,0.5,0,1,1,0-1h5.882a5.363,5.363,0,0,1,2.792.8,0.585,0.585,0,0,1,.2.5A0.417,0.417,0,0,1,13.755,7.966Zm12.163,9.464H19.937a4.092,4.092,0,0,0-2.193.7,0.5,0.5,0,1,1-.6-0.8,5.642,5.642,0,0,1,2.791-.8h5.982a0.537,0.537,0,0,1,.5.4A0.471,0.471,0,0,1,25.918,17.429Zm0-2.49H19.937a4.092,4.092,0,0,0-2.193.7,0.445,0.445,0,0,1-.5,0,0.417,0.417,0,0,1-.3-0.4,1.051,1.051,0,0,1,.2-0.5,5.643,5.643,0,0,1,2.791-.8h5.982a0.534,0.534,0,0,1,.5.5A0.471,0.471,0,0,1,25.918,14.939Zm0-2.59H19.937a4.092,4.092,0,0,0-2.193.7,0.493,0.493,0,0,1-.7-0.1,0.751,0.751,0,0,1,.1-0.8,5.642,5.642,0,0,1,2.791-.8h5.982a0.64,0.64,0,0,1,.5.5A0.471,0.471,0,0,1,25.918,12.349Zm0-2.59H19.937a4.092,4.092,0,0,0-2.193.7,0.445,0.445,0,0,1-.5,0,0.417,0.417,0,0,1-.3-0.4,1.051,1.051,0,0,1,.2-0.5,5.643,5.643,0,0,1,2.791-.8h5.982a0.64,0.64,0,0,1,.5.5A0.471,0.471,0,0,1,25.918,9.759Zm-5.982-5.18a4.092,4.092,0,0,0-2.193.7,0.445,0.445,0,0,1-.5,0,0.417,0.417,0,0,1-.3-0.4,1.682,1.682,0,0,1,.2-0.5,5.643,5.643,0,0,1,2.791-.8h5.982a0.64,0.64,0,0,1,.5.5,0.471,0.471,0,0,1-.5.5H19.937Zm5.982,2.59H19.937a4.092,4.092,0,0,0-2.193.7,0.445,0.445,0,0,1-.5,0,0.417,0.417,0,0,1-.3-0.4,1.051,1.051,0,0,1,.2-0.5,5.643,5.643,0,0,1,2.791-.8h5.982a0.534,0.534,0,0,1,.5.5A0.471,0.471,0,0,1,25.918,7.169ZM30.9,3.084V22.211a0.471,0.471,0,0,1-.5.5h-3.29a44.975,44.975,0,0,0-9.671,1.1,2.19,2.19,0,0,1-1.994-.7,1.97,1.97,0,0,1-1.994.7,44.977,44.977,0,0,0-9.671-1.1H0.5a0.471,0.471,0,0,1-.5-0.5V3.084a0.471,0.471,0,0,1,.5-0.5,0.471,0.471,0,0,1,.5.5V21.613H3.885a41.652,41.652,0,0,1,9.87,1.1,0.947,0.947,0,0,0,1.1-.4,12.267,12.267,0,0,0-6.181-1.694H2.589a0.471,0.471,0,0,1-.5-0.5V0.494a0.471,0.471,0,0,1,.5-0.5h8.474A4.843,4.843,0,0,1,15.45,2.786,5.1,5.1,0,0,1,19.937,0h8.474a0.471,0.471,0,0,1,.5.5V14.441a0.5,0.5,0,0,1-1,0V0.992H19.937a4.117,4.117,0,0,0-3.988,3.885,0.5,0.5,0,0,1-1,0A3.891,3.891,0,0,0,11.063.992H3.088V19.621H8.77a12.631,12.631,0,0,1,6.281,1.694V7.268a0.558,0.558,0,0,1,.6-0.5,0.471,0.471,0,0,1,.5.5V21.414a12.632,12.632,0,0,1,6.281-1.694h5.583V16.632a0.5,0.5,0,0,1,1,0v3.586a0.471,0.471,0,0,1-.5.5H22.429a12.268,12.268,0,0,0-6.181,1.693,1.107,1.107,0,0,0,1.1.4,46.823,46.823,0,0,1,9.87-1.1h2.791V3.084a0.471,0.471,0,0,1,.5-0.5A0.366,0.366,0,0,1,30.9,3.084Z"/>
</svg>
