<svg xmlns="http://www.w3.org/2000/svg" width="22" height="22" viewBox="0 0 22 22">
  <defs>
    <style>
      .cls-1 {
        fill: #333;
        fill-rule: evenodd;
      }
    </style>
  </defs>
  <path class="cls-1" d="M1.833,0h5.5A1.7,1.7,0,0,1,8.995,1.833v5.5A1.564,1.564,0,0,1,7.333,9h-5.5A1.705,1.705,0,0,1,0,7.333v-5.5A1.839,1.839,0,0,1,1.833,0ZM1.03,1.009L1.006,8.068,8,8V1ZM14.667,0h5.5A1.839,1.839,0,0,1,22,1.833v5.5A1.705,1.705,0,0,1,20.167,9h-5.5a1.558,1.558,0,0,1-1.654-1.669v-5.5A1.693,1.693,0,0,1,14.667,0ZM14,1V8h7V1H14Zm0.667,12h5.5A1.705,1.705,0,0,1,22,14.667v5.5A1.839,1.839,0,0,1,20.167,22h-5.5a1.693,1.693,0,0,1-1.654-1.833v-5.5A1.558,1.558,0,0,1,14.667,13ZM14,14v7h7V14H14ZM1.833,13h5.5a1.552,1.552,0,0,1,1.646,1.669v5.5A1.687,1.687,0,0,1,7.333,22h-5.5A1.839,1.839,0,0,1,0,20.167v-5.5A1.705,1.705,0,0,1,1.833,13ZM1,14v7H8V14H1Z"/>
</svg>
