<?xml version="1.0" encoding="UTF-8"?>
<svg width="26px" height="26px" viewBox="0 0 26 26" version="1.1" xmlns="http://www.w3.org/2000/svg" xmlns:xlink="http://www.w3.org/1999/xlink">
    <!-- Generator: Sketch 52.6 (67491) - http://www.bohemiancoding.com/sketch -->
    <title>Combined Shape</title>
    <desc>Created with Sketch.</desc>
    <g id="ASSETS" stroke="none" stroke-width="1" fill="none" fill-rule="evenodd">
        <g id="events" transform="translate(-656.000000, -254.000000)" fill="#FFFFFF" fill-rule="nonzero">
            <g id="Group-5" transform="translate(284.000000, 57.000000)">
                <g id="Group" transform="translate(117.000000, 185.000000)">
                    <g id="clock" transform="translate(255.000000, 12.000000)">
                        <path d="M22.1924219,3.80757813 C24.6477969,6.26300391 26,9.52757812 26,13 C26,16.4724219 24.6478477,19.7370469 22.1924219,22.1924219 C19.7369961,24.6477969 16.4724219,26 13,26 C9.52757812,26 6.26295313,24.6478477 3.80757813,22.1924219 C1.35220312,19.7369961 0,16.4724219 0,13 C0,9.52757812 1.35215234,6.26295313 3.80757813,3.80757813 C6.26300391,1.35220312 9.52757812,0 13,0 C16.4724219,0 19.7369961,1.35220312 22.1924219,3.80757813 Z M21.6178828,21.6178828 C23.9197969,19.3159687 25.1875,16.2553828 25.1875,13 C25.1875,9.74461719 23.9197969,6.68403125 21.6178828,4.38211719 C19.3159687,2.08020312 16.2553828,0.8125 13,0.8125 C9.74461719,0.8125 6.68403125,2.08020312 4.38211719,4.38211719 C2.08020312,6.68403125 0.8125,9.74461719 0.8125,13 C0.8125,16.2553828 2.08020312,19.3159687 4.38211719,21.6178828 C6.68403125,23.9197969 9.74461719,25.1875 13,25.1875 C16.2553828,25.1875 19.3159687,23.9197969 21.6178828,21.6178828 Z M2.4375,13 C2.4375,15.6028945 3.39254297,18.1035156 5.12657031,20.0412266 C5.27622266,20.2083984 5.26195312,20.4651992 5.09478125,20.6148516 C5.01728906,20.6842695 4.92044922,20.7183945 4.82401562,20.7183945 C4.7125,20.7183945 4.60139062,20.6727422 4.52115625,20.5830625 C2.65352344,18.4961563 1.625,15.803125 1.625,13 C1.625,9.96160547 2.80820312,7.10510938 4.95665625,4.95665625 C7.10510937,2.80820313 9.96160547,1.625 13,1.625 C15.2622031,1.625 17.447625,2.28749219 19.3199805,3.540875 C19.5064492,3.66569531 19.556418,3.91802734 19.4315977,4.10444531 C19.3067773,4.29091406 19.0544453,4.34088281 18.8680273,4.2160625 C17.1298359,3.05251172 15.1007187,2.4375 13,2.4375 C7.17584766,2.4375 2.4375,7.17584766 2.4375,13 Z M22.4591758,6.68012109 C23.7125078,8.55242578 24.375,10.7378477 24.375,13 C24.375,16.0383945 23.1917969,18.8948906 21.0433437,21.0433437 C18.8948906,23.1917969 16.0383945,24.375 13,24.375 C10.3978164,24.375 7.85403125,23.4736836 5.83725391,21.8371055 C5.66302344,21.6957305 5.63641406,21.4398945 5.77778906,21.2656641 C5.91916406,21.0914336 6.175,21.0648242 6.34923047,21.2061992 C8.2216875,22.7256758 10.5836758,23.5625 13,23.5625 C18.8241523,23.5625 23.5625,18.8241523 23.5625,13 C23.5625,10.899332 22.9474883,8.87021484 21.7839883,7.13207422 C21.659168,6.94565625 21.7091875,6.69332422 21.8956055,6.56850391 C22.0820234,6.44368359 22.3343555,6.49365234 22.4591758,6.68012109 Z M20.0412266,5.12662109 C19.8740039,4.97696875 19.8598359,4.72011719 20.0094375,4.55294531 C20.1590391,4.38577344 20.4158906,4.37155469 20.5830625,4.52115625 C20.8770859,4.78430469 21.1605977,5.06583594 21.4256758,5.35792969 C21.5764453,5.52408594 21.5639531,5.78103906 21.3978477,5.93180859 C21.3200508,6.00239453 21.2222969,6.03723047 21.1249492,6.03723047 C21.0143477,6.03723047 20.9041523,5.99233984 20.8239687,5.90398047 C20.5777305,5.63260547 20.3143789,5.37103125 20.0412266,5.12662109 Z M13,5.28125 C12.7756484,5.28125 12.59375,5.09935156 12.59375,4.875 L12.59375,3.65625 C12.59375,3.43189844 12.7756484,3.25 13,3.25 C13.2243516,3.25 13.40625,3.43189844 13.40625,3.65625 L13.40625,4.875 C13.40625,5.09935156 13.2243516,5.28125 13,5.28125 Z M12.59375,21.125 C12.59375,20.9006484 12.7756484,20.71875 13,20.71875 C13.2243516,20.71875 13.40625,20.9006484 13.40625,21.125 L13.40625,22.34375 C13.40625,22.5681016 13.2243516,22.75 13,22.75 C12.7756484,22.75 12.59375,22.5681016 12.59375,22.34375 L12.59375,21.125 Z M5.28125,13 C5.28125,13.2243516 5.09935156,13.40625 4.875,13.40625 L3.65625,13.40625 C3.43189844,13.40625 3.25,13.2243516 3.25,13 C3.25,12.7756484 3.43189844,12.59375 3.65625,12.59375 L4.875,12.59375 C5.09935156,12.59375 5.28125,12.7756484 5.28125,13 Z M20.71875,13 C20.71875,12.7756484 20.9006484,12.59375 21.125,12.59375 L22.34375,12.59375 C22.5681016,12.59375 22.75,12.7756484 22.75,13 C22.75,13.2243516 22.5681016,13.40625 22.34375,13.40625 L21.125,13.40625 C20.9006484,13.40625 20.71875,13.2243516 20.71875,13 Z M9.2893125,5.76042188 C9.40148828,5.95471094 9.33491406,6.20318359 9.14067578,6.31535938 C9.07669141,6.35227734 9.00681641,6.36984766 8.93790625,6.36984766 C8.79749609,6.36984766 8.66094531,6.29697656 8.5856875,6.16667188 L7.9763125,5.11118359 C7.86413672,4.91689453 7.93071094,4.66842188 8.125,4.55624609 C8.31928906,4.44412109 8.56776172,4.51059375 8.6799375,4.70493359 L9.2893125,5.76042188 Z M17.4143125,19.8333281 L18.0237383,20.8888164 C18.1359141,21.0831055 18.0693398,21.3315781 17.8750508,21.4437539 C17.8110664,21.4806719 17.7411914,21.4982422 17.6722812,21.4982422 C17.5318711,21.4982422 17.3953203,21.4253711 17.3200625,21.2950664 L16.7106875,20.2395781 C16.5985117,20.0452891 16.6650859,19.7968164 16.859375,19.6846406 C17.0536133,19.5725664 17.3021367,19.6390391 17.4143125,19.8333281 Z M4.90846484,18.0781758 C4.76805469,18.0781758 4.63150391,18.0053047 4.55629687,17.875 C4.44412109,17.6807109 4.51069531,17.4322383 4.70498437,17.3200625 L5.76047266,16.7106875 C5.95471094,16.5986133 6.20323437,16.6650859 6.31541016,16.859375 C6.42758594,17.0536641 6.36101172,17.3021367 6.16672266,17.4143125 L5.11123437,18.0236875 C5.04725,18.0606055 4.977375,18.0781758 4.90846484,18.0781758 Z M20.0368086,9.34380078 C19.8964492,9.34380078 19.7598984,9.27092969 19.6846406,9.140625 C19.5724648,8.94633594 19.6390391,8.69786328 19.8333281,8.5856875 L20.8888164,7.9763125 C21.0831055,7.86423828 21.3315781,7.93071094 21.4437539,8.125 C21.5559297,8.31928906 21.4893555,8.56776172 21.2950664,8.6799375 L20.2395781,9.2893125 C20.1755938,9.32623047 20.1057188,9.34380078 20.0368086,9.34380078 Z M17.875,4.55624609 C18.0692891,4.66842188 18.1358633,4.91689453 18.0237383,5.11118359 L17.4143633,6.16667188 C17.3391055,6.29697656 17.2025547,6.36984766 17.0621445,6.36984766 C16.9931836,6.36984766 16.9233594,6.35232813 16.859375,6.31535938 C16.6650859,6.20318359 16.5985117,5.95471094 16.7106875,5.76042188 L17.3200625,4.70493359 C17.4322383,4.51059375 17.6807109,4.44401953 17.875,4.55624609 Z M9.140625,19.6846406 C9.33491406,19.7968164 9.40148828,20.0452891 9.28936328,20.2395781 L8.67998828,21.2950664 C8.60473047,21.4253711 8.46817969,21.4982422 8.32776953,21.4982422 C8.25880859,21.4982422 8.18898437,21.4807227 8.125,21.4437539 C7.93071094,21.3315781 7.86413672,21.0831055 7.9763125,20.8888164 L8.5856875,19.8333281 C8.69786328,19.6390391 8.94633594,19.5724648 9.140625,19.6846406 Z M19.8333281,17.4143125 C19.6390391,17.3021367 19.5724648,17.0536641 19.6846914,16.859375 C19.7968672,16.6650859 20.0453398,16.5984609 20.2396289,16.7106875 L21.2951172,17.3200625 C21.4894063,17.4322383 21.5559805,17.6807109 21.4438047,17.875 C21.3685469,18.0053047 21.2319961,18.0781758 21.0915859,18.0781758 C21.022625,18.0781758 20.9528008,18.0606563 20.8888164,18.0236875 L19.8333281,17.4143125 Z M6.16667188,8.5856875 C6.36096094,8.69786328 6.42753516,8.94633594 6.31541016,9.140625 C6.24015234,9.27092969 6.10360156,9.34380078 5.96319141,9.34380078 C5.89423047,9.34380078 5.82440625,9.32628125 5.76042188,9.2893125 L4.70493359,8.6799375 C4.51064453,8.56776172 4.44407031,8.31928906 4.55624609,8.125 C4.66842188,7.93071094 4.91689453,7.86408594 5.11118359,7.9763125 L6.16667188,8.5856875 Z M15.8281094,18.3041523 C15.68775,18.3041523 15.5511992,18.2312813 15.4759414,18.1009766 L13.2225742,14.1980313 C13.1503633,14.2113867 13.0760195,14.21875 13,14.21875 C12.3279609,14.21875 11.78125,13.6720391 11.78125,13 C11.78125,12.4704023 12.1209258,12.0188047 12.59375,11.851125 L12.59375,6.5 C12.59375,6.27564844 12.7756484,6.09375 13,6.09375 C13.2243516,6.09375 13.40625,6.27564844 13.40625,6.5 L13.40625,11.851125 C13.8790742,12.0188047 14.21875,12.4704023 14.21875,13 C14.21875,13.301793 14.10825,13.5780938 13.9258945,13.7912227 L16.1795664,17.6947266 C16.2917422,17.8890156 16.225168,18.1374883 16.0308789,18.2496641 C15.9668945,18.286582 15.8970195,18.3041523 15.8281094,18.3041523 Z M12.59375,13 C12.59375,13.2239961 12.7760039,13.40625 13,13.40625 C13.2239961,13.40625 13.40625,13.2239961 13.40625,13 C13.40625,12.7760039 13.2239961,12.59375 13,12.59375 C12.7760039,12.59375 12.59375,12.7760039 12.59375,13 Z" id="Combined-Shape"></path>
                    </g>
                </g>
            </g>
        </g>
    </g>
</svg>