<?xml version="1.0" encoding="utf-8"?>
<!-- Generator: Adobe Illustrator 22.0.0, SVG Export Plug-In . SVG Version: 6.00 Build 0)  -->
<svg version="1.1" id="Capa_1" xmlns="http://www.w3.org/2000/svg" xmlns:xlink="http://www.w3.org/1999/xlink" x="0px" y="0px"
	 width="20px" height="20px" viewBox="0 0 20 20" enable-background="new 0 0 20 20" xml:space="preserve">
<g>
	<path fill="#084C35" d="M17.1,2.9C15.2,1,12.7,0,10,0S4.8,1,2.9,2.9S0,7.3,0,10s1,5.2,2.9,7.1S7.3,20,10,20s5.2-1,7.1-2.9
		C19,15.2,20,12.7,20,10S19,4.8,17.1,2.9z M16.6,16.6c-1.8,1.8-4.1,2.7-6.6,2.7s-4.9-1-6.6-2.7S0.6,12.5,0.6,10s1-4.9,2.7-6.6
		S7.5,0.6,10,0.6s4.9,1,6.6,2.7s2.7,4.1,2.7,6.6S18.4,14.9,16.6,16.6z"/>
	<path fill="#084C35" d="M1.9,10c0-4.5,3.6-8.1,8.1-8.1c1.6,0,3.2,0.5,4.5,1.4c0.1,0.1,0.3,0.1,0.4-0.1C15,3,15,2.8,14.9,2.7
		c-1.4-1-3.1-1.5-4.9-1.5c-2.3,0-4.5,0.9-6.2,2.6S1.2,7.7,1.2,10c0,2.2,0.8,4.2,2.2,5.8c0.1,0.1,0.1,0.1,0.2,0.1
		c0.1,0,0.1,0,0.2-0.1c0.1-0.1,0.1-0.3,0-0.4C2.6,13.9,1.9,12,1.9,10z"/>
	<path fill="#084C35" d="M17.3,5.1C17.2,5,17,5,16.8,5.1s-0.2,0.3-0.1,0.4c0.9,1.3,1.4,2.9,1.4,4.5c0,4.5-3.6,8.1-8.1,8.1
		c-1.9,0-3.7-0.6-5.1-1.8c-0.1-0.1-0.3-0.1-0.4,0s-0.1,0.3,0,0.4c1.6,1.3,3.5,2,5.5,2c2.3,0,4.5-0.9,6.2-2.6s2.6-3.8,2.6-6.2
		C18.8,8.3,18.2,6.6,17.3,5.1z"/>
	<path fill="#084C35" d="M15.4,3.9c0.2,0.2,0.4,0.4,0.6,0.6c0.1,0.1,0.1,0.1,0.2,0.1c0.1,0,0.2,0,0.2-0.1c0.1-0.1,0.1-0.3,0-0.4
		c-0.2-0.2-0.4-0.4-0.6-0.6c-0.1-0.1-0.3-0.1-0.4,0C15.3,3.6,15.3,3.8,15.4,3.9z"/>
	<path fill="#084C35" d="M10,4.1c0.2,0,0.3-0.1,0.3-0.3V2.8c0-0.2-0.1-0.3-0.3-0.3S9.7,2.6,9.7,2.8v0.9C9.7,3.9,9.8,4.1,10,4.1z"/>
	<path fill="#084C35" d="M9.7,16.2v0.9c0,0.2,0.1,0.3,0.3,0.3s0.3-0.1,0.3-0.3v-0.9c0-0.2-0.1-0.3-0.3-0.3S9.7,16.1,9.7,16.2z"/>
	<path fill="#084C35" d="M4.1,10c0-0.2-0.1-0.3-0.3-0.3H2.8c-0.2,0-0.3,0.1-0.3,0.3s0.1,0.3,0.3,0.3h0.9C3.9,10.3,4.1,10.2,4.1,10z"
		/>
	<path fill="#084C35" d="M15.9,10c0,0.2,0.1,0.3,0.3,0.3h0.9c0.2,0,0.3-0.1,0.3-0.3s-0.1-0.3-0.3-0.3h-0.9
		C16.1,9.7,15.9,9.8,15.9,10z"/>
	<path fill="#084C35" d="M7.1,4.4L6.7,3.6C6.6,3.5,6.4,3.4,6.2,3.5C6.1,3.6,6,3.8,6.1,3.9l0.5,0.8c0.1,0.1,0.2,0.2,0.3,0.2
		c0.1,0,0.1,0,0.2,0C7.2,4.8,7.2,4.6,7.1,4.4z"/>
	<path fill="#084C35" d="M13.4,15.3c-0.1-0.1-0.3-0.2-0.4-0.1c-0.1,0.1-0.2,0.3-0.1,0.4l0.5,0.8c0.1,0.1,0.2,0.2,0.3,0.2
		c0.1,0,0.1,0,0.2,0c0.1-0.1,0.2-0.3,0.1-0.4L13.4,15.3z"/>
	<path fill="#084C35" d="M3.8,13.9c0.1,0,0.1,0,0.2,0l0.8-0.5c0.1-0.1,0.2-0.3,0.1-0.4c-0.1-0.1-0.3-0.2-0.4-0.1l-0.8,0.5
		c-0.1,0.1-0.2,0.3-0.1,0.4C3.6,13.9,3.7,13.9,3.8,13.9z"/>
	<path fill="#084C35" d="M15.4,7.2c0.1,0,0.1,0,0.2,0l0.8-0.5c0.1-0.1,0.2-0.3,0.1-0.4S16.2,6,16.1,6.1l-0.8,0.5
		c-0.1,0.1-0.2,0.3-0.1,0.4C15.2,7.1,15.3,7.2,15.4,7.2z"/>
	<path fill="#084C35" d="M13.8,3.5c-0.1-0.1-0.3,0-0.4,0.1l-0.5,0.8c-0.1,0.1,0,0.3,0.1,0.4c0,0,0.1,0,0.2,0c0.1,0,0.2-0.1,0.3-0.2
		l0.5-0.8C14,3.8,13.9,3.6,13.8,3.5z"/>
	<path fill="#084C35" d="M7,15.1c-0.1-0.1-0.3,0-0.4,0.1l-0.5,0.8c-0.1,0.1,0,0.3,0.1,0.4c0,0,0.1,0,0.2,0c0.1,0,0.2-0.1,0.3-0.2
		l0.5-0.8C7.2,15.4,7.2,15.2,7,15.1z"/>
	<path fill="#084C35" d="M15.3,13.4l0.8,0.5c0,0,0.1,0,0.2,0c0.1,0,0.2-0.1,0.3-0.2c0.1-0.1,0-0.3-0.1-0.4l-0.8-0.5
		c-0.1-0.1-0.3,0-0.4,0.1C15.1,13.1,15.1,13.3,15.3,13.4z"/>
	<path fill="#084C35" d="M4.7,6.6L3.9,6.1C3.8,6,3.6,6.1,3.5,6.2c-0.1,0.1,0,0.3,0.1,0.4l0.8,0.5c0,0,0.1,0,0.2,0
		c0.1,0,0.2-0.1,0.3-0.2C4.9,6.9,4.9,6.7,4.7,6.6z"/>
	<path fill="#084C35" d="M12.2,14.1c0.1,0,0.1,0,0.2,0c0.1-0.1,0.2-0.3,0.1-0.4l-1.7-3c0.1-0.2,0.2-0.4,0.2-0.6
		c0-0.4-0.3-0.8-0.6-0.9V5c0-0.2-0.1-0.3-0.3-0.3S9.7,4.8,9.7,5v4.1C9.3,9.2,9.1,9.6,9.1,10c0,0.5,0.4,0.9,0.9,0.9
		c0.1,0,0.1,0,0.2,0l1.7,3C12,14,12.1,14.1,12.2,14.1z M9.7,10c0-0.2,0.1-0.3,0.3-0.3c0.2,0,0.3,0.1,0.3,0.3c0,0.2-0.1,0.3-0.3,0.3
		S9.7,10.2,9.7,10z"/>
</g>
</svg>
