<svg xmlns="http://www.w3.org/2000/svg" width="24.938" height="23.938" viewBox="0 0 24.938 23.938">
  <defs>
    <style>
      .cls-1 {
        fill: #333;
        fill-rule: evenodd;
      }
    </style>
  </defs>
  <path id="comments" class="cls-1" d="M10.344,1.752a0.4,0.4,0,1,1,.4.4A0.4,0.4,0,0,1,10.344,1.752Zm2.139,11.266a1.923,1.923,0,1,1,1.933-1.923A1.93,1.93,0,0,1,12.483,13.017Zm0-2.963a1.04,1.04,0,1,0,1.045,1.04A1.043,1.043,0,0,0,12.483,10.055Zm7.985,1.04a1.933,1.933,0,1,1-1.933-1.923A1.93,1.93,0,0,1,20.468,11.094Zm-2.977,0a1.045,1.045,0,1,0,1.045-1.04A1.043,1.043,0,0,0,17.491,11.094ZM11.566,1.708a0.415,0.415,0,0,1,.416-0.414,12.182,12.182,0,0,1,9.812,4.667h0L21.822,6a0.5,0.5,0,0,1-.213.478,0.666,0.666,0,0,1-.547-0.088,12.422,12.422,0,0,0-9.08-4.268A0.415,0.415,0,0,1,11.566,1.708Zm-1.691.275a0.4,0.4,0,1,1-.4-0.4A0.4,0.4,0,0,1,9.875,1.983Zm-2.023.411a0.4,0.4,0,1,1,.4.4A0.4,0.4,0,0,1,7.851,2.394ZM6.43,13.017a1.923,1.923,0,1,1,1.933-1.923A1.93,1.93,0,0,1,6.43,13.017Zm0-2.963a1.04,1.04,0,1,0,1.045,1.04A1.043,1.043,0,0,0,6.43,10.055ZM15.256,21.73l-6.83,2.218A0.672,0.672,0,0,1,7.577,23.1L8.16,21.326a12.791,12.791,0,0,1-4.732-2.744,0.44,0.44,0,0,1-.023-0.624,0.445,0.445,0,0,1,.627-0.022,11.962,11.962,0,0,0,4.812,2.676,0.442,0.442,0,0,1,.3.561l-0.592,1.8c6.827-2.217,6.465-2.1,6.505-2.109,5.315-1.05,9.353-5.4,9-10.474C23.674,5.053,18.545.931,12.483,0.931,6.089,0.931.888,5.459,0.888,11.025a9.114,9.114,0,0,0,1.661,5.206,0.441,0.441,0,0,1-.113.615,0.445,0.445,0,0,1-.618-0.113A9.99,9.99,0,0,1,0,11.025,10.286,10.286,0,0,1,3.677,3.243a13.55,13.55,0,0,1,8.8-3.207c6.461,0,12.151,4.445,12.477,10.437C25.2,14.876,22.135,20.358,15.256,21.73Z" transform="translate(0 -0.031)"/>
</svg>
