<svg xmlns="http://www.w3.org/2000/svg" width="22" height="21.969" viewBox="0 0 22 21.969">
  <defs>
    <style>
      .cls-1 {
        fill: #333;
        fill-rule: evenodd;
      }
    </style>
  </defs>
  <path class="cls-1" d="M19.215,1.84H17.4v-1a1.031,1.031,0,0,0-.887-0.859A1.062,1.062,0,0,0,15.6.842v1h-9.2v-1A1.031,1.031,0,0,0,5.506-.017a1.062,1.062,0,0,0-.915.859v1H2.805A2.758,2.758,0,0,0,0,4.592V19.168a2.817,2.817,0,0,0,2.747,2.8h16.5A2.717,2.717,0,0,0,22,19.222V4.575a2.664,2.664,0,0,0-2.655-2.73Q19.28,1.841,19.215,1.84ZM2.805,2.766H4.591v0.7a1.357,1.357,0,0,0,.916,1.1,1.327,1.327,0,0,0,.886-1.1v-0.7h9.2v0.7a1.357,1.357,0,0,0,.915,1.1,1.327,1.327,0,0,0,.887-1.1v-0.7h1.815a2.415,2.415,0,0,1,1.869,1.809,13.01,13.01,0,0,1,0,1.831H0.917V4.575A2.228,2.228,0,0,1,2.805,2.766ZM19.25,21.053H2.75A2.446,2.446,0,0,1,.917,19.222V7.321H21.083v11.9A2.608,2.608,0,0,1,19.25,21.053ZM1.833,18.307V17.391H20.167v0.915H1.833Zm0-3.2H20.167v0.915H1.833V15.1Zm0-2.289H20.167V13.73H1.833V12.814Zm0-2.289H20.167v0.915H1.833V10.525Zm0-2.289H20.167V9.152H1.833V8.237Z"/>
</svg>
