<?xml version="1.0" encoding="utf-8"?>
<!-- Generator: Adobe Illustrator 22.0.0, SVG Export Plug-In . SVG Version: 6.00 Build 0)  -->
<svg version="1.1" id="Layer_1" xmlns="http://www.w3.org/2000/svg" xmlns:xlink="http://www.w3.org/1999/xlink" x="0px" y="0px"
	 width="16.2px" height="20px" viewBox="0 0 16.2 20" style="enable-background:new 0 0 16.2 20;" xml:space="preserve">
<style type="text/css">
	.st0{fill:#FF4040;}
</style>
<g>
	<path class="st0" d="M10.9,17c0.3,0,0.5-0.2,0.5-0.5V7.7c0-0.3-0.2-0.5-0.5-0.5c-0.3,0-0.5,0.2-0.5,0.5v8.9
		C10.4,16.8,10.6,17,10.9,17z"/>
	<path class="st0" d="M5.4,17c0.3,0,0.5-0.2,0.5-0.5V7.7c0-0.3-0.2-0.5-0.5-0.5c-0.3,0-0.5,0.2-0.5,0.5v8.9C4.9,16.8,5.1,17,5.4,17z
		"/>
	<path class="st0" d="M16.2,4c-0.1-0.9-0.9-1.6-1.8-1.6h-2.4V1.9c0-0.5-0.2-1-0.5-1.3C11.2,0.2,10.7,0,10.2,0H6
		c-0.5,0-1,0.2-1.3,0.5C4.4,0.9,4.2,1.4,4.2,1.9v0.6H1.8C0.9,2.4,0.1,3.1,0,4c-0.1,0.9,0.4,1.7,1.3,2v11.5c0,0.7,0.3,1.3,0.7,1.8
		c0.4,0.5,1,0.7,1.7,0.7h8.9c0.6,0,1.2-0.3,1.7-0.7c0.4-0.5,0.7-1.1,0.7-1.8V6C15.8,5.7,16.3,4.9,16.2,4z M5.1,1.9
		c0-0.2,0.1-0.5,0.3-0.7C5.6,1,5.8,0.9,6,0.9h4.2c0.2,0,0.5,0.1,0.7,0.3c0.2,0.2,0.3,0.4,0.3,0.7v0.6h-6V1.9z M14,17.5
		c0,0.9-0.6,1.6-1.4,1.6H3.7c-0.8,0-1.4-0.7-1.4-1.6V6H14V17.5z M14.5,5.1H1.8c-0.5,0-0.8-0.4-0.8-0.8s0.4-0.8,0.8-0.8h12.7
		c0.5,0,0.8,0.4,0.8,0.8S14.9,5.1,14.5,5.1z"/>
	<path class="st0" d="M8.1,17c0.3,0,0.5-0.2,0.5-0.5V7.7c0-0.3-0.2-0.5-0.5-0.5c-0.3,0-0.5,0.2-0.5,0.5v8.9C7.7,16.8,7.9,17,8.1,17z
		"/>
</g>
</svg>
