<?xml version="1.0" encoding="UTF-8"?>
<svg width="24px" height="16px" viewBox="0 0 24 16" version="1.1" xmlns="http://www.w3.org/2000/svg" xmlns:xlink="http://www.w3.org/1999/xlink">
    <!-- Generator: Sketch 52.6 (67491) - http://www.bohemiancoding.com/sketch -->
    <title>email</title>
    <desc>Created with Sketch.</desc>
    <g id="ASSETS" stroke="none" stroke-width="1" fill="none" fill-rule="evenodd">
        <g id="Subscibe" transform="translate(-828.000000, -40.000000)" fill="#000000" fill-rule="nonzero">
            <g id="email" transform="translate(828.000000, 40.000000)">
                <path d="M5.71665188,0 L5.71191955,0 C5.50282638,0 5.33333333,0.170552381 5.33333333,0.380952381 C5.33333333,0.591352381 5.50282638,0.761904762 5.71191955,0.761904762 L5.71665188,0.761904762 C5.92574505,0.761904762 6.0952381,0.591352381 6.0952381,0.380952381 C6.0952381,0.170552381 5.92574505,0 5.71665188,0 Z" id="Path"></path>
                <path d="M21.7738095,0 L8.39897024,0 C8.14418899,0 7.93766071,0.207003774 7.93766071,0.46237162 C7.93766071,0.717739465 8.14418899,0.924743239 8.39897024,0.924743239 L21.7738095,0.924743239 C21.7977054,0.924743239 21.821186,0.926546489 21.8446205,0.928349738 L20.5555833,2.22035475 L14.5381696,2.22035475 C14.2833884,2.22035475 14.0768601,2.42735853 14.0768601,2.68272637 C14.0768601,2.93809422 14.2833884,3.14509799 14.5381696,3.14509799 L19.6329643,3.14509799 L13.202817,9.59004976 C12.4345521,10.3600835 11.1844955,10.3601297 10.4162307,9.59004976 L1.77442708,0.928349738 C1.79786161,0.926546489 1.82134226,0.924743239 1.8452381,0.924743239 L4.29017857,0.924743239 C4.54495982,0.924743239 4.7514881,0.717739465 4.7514881,0.46237162 C4.7514881,0.207003774 4.54495982,0 4.29017857,0 L1.8452381,0 C0.82777381,0 0,0.829679634 0,1.84948648 L0,14.1505135 C0,15.1703204 0.82777381,16 1.8452381,16 L21.7738095,16 C22.7912738,16 23.6190476,15.1703204 23.6190476,14.1505135 L23.6190476,1.84948648 C23.6190476,0.829679634 22.7912738,0 21.7738095,0 Z M0.922619048,14.1505135 L0.922619048,1.84948648 C0.922619048,1.71276319 0.953157738,1.58334537 1.00653125,1.46645783 L7.42712946,7.90183851 L0.954864583,14.3890048 C0.934520833,14.3127597 0.922619048,14.2330931 0.922619048,14.1505135 Z M21.7738095,15.0752568 L1.8452381,15.0752568 C1.76284821,15.0752568 1.68336458,15.0633276 1.60729464,15.042937 L8.07955952,8.55577069 L9.76389286,10.2439819 C10.3278438,10.8092312 11.0686607,11.091879 11.8095238,11.091879 C12.5503869,11.091879 13.2912039,10.8092312 13.8552009,10.2439819 L15.5394881,8.55577069 L22.011753,15.042937 C21.935683,15.0633276 21.8561994,15.0752568 21.7738095,15.0752568 Z M22.6964286,14.1505135 C22.6964286,14.2330931 22.6845268,14.3127597 22.664183,14.3890048 L16.1919182,7.90188474 L22.6125164,1.46645783 C22.6658899,1.58334537 22.6964286,1.71276319 22.6964286,1.84948648 L22.6964286,14.1505135 Z" id="Shape"></path>
                <path d="M12.5742644,2.28571429 L12.5685927,2.28571429 C12.359759,2.28571429 12.1904762,2.45626667 12.1904762,2.66666667 C12.1904762,2.87706667 12.359759,3.04761905 12.5685927,3.04761905 L12.5742644,3.04761905 C12.7830982,3.04761905 12.952381,2.87706667 12.952381,2.66666667 C12.952381,2.45626667 12.7830982,2.28571429 12.5742644,2.28571429 Z" id="Path"></path>
            </g>
        </g>
    </g>
</svg>