<?xml version="1.0" encoding="UTF-8"?>
<svg width="20px" height="20px" viewBox="0 0 20 20" version="1.1" xmlns="http://www.w3.org/2000/svg" xmlns:xlink="http://www.w3.org/1999/xlink">
    <!-- Generator: Sketch 52.6 (67491) - http://www.bohemiancoding.com/sketch -->
    <title>email (1)</title>
    <desc>Created with Sketch.</desc>
    <g id="ASSETS" stroke="none" stroke-width="1" fill="none" fill-rule="evenodd">
        <g id="Footer" transform="translate(-1142.000000, -233.000000)" fill="#084c35" fill-rule="nonzero">
            <g id="Group-3" transform="translate(1141.000000, 92.000000)">
                <g id="email-(1)" transform="translate(1.000000, 141.000000)">
                    <path d="M9.94742293,11.4285714 C9.24153194,11.4251332 8.5402425,11.3090127 7.86759999,11.0841913 C6.7928619,10.7066543 5.99459749,9.75130333 5.77792037,8.58329379 C5.54082465,7.38416314 5.97291263,6.11625566 6.96314705,5.10477333 C7.06939767,4.99611916 7.17980511,4.89203909 7.29436936,4.79253313 C8.30826259,3.90125789 9.67518313,3.59152008 10.9488996,3.96443364 C12.1820095,4.37769424 13.0340619,5.56096763 13.0766834,6.91935742 C13.1228538,7.70127892 12.880137,8.47178764 12.3990286,9.07058425 C12.0279694,9.56136996 11.4267602,9.79318901 10.8413894,9.67119115 C10.6019893,9.61903126 10.3931225,9.46679881 10.2628683,9.24953627 C10.1459961,9.03850125 10.1160237,8.78658765 10.179858,8.55184823 C10.4552468,7.45882568 10.7352332,5.79776603 10.7380044,5.78093554 C10.7575637,5.66457487 10.8347583,5.56800972 10.94051,5.52761527 C11.0462616,5.48722082 11.1645039,5.50913391 11.2506963,5.58510013 C11.3368887,5.66106636 11.3779363,5.7795446 11.3583771,5.89590527 C11.3466939,5.96501276 11.0709902,7.60117388 10.7888309,8.72088052 C10.7686918,8.78292866 10.7737481,8.85094342 10.8028129,8.9089587 C10.8463586,8.97222776 10.9120605,9.01473829 10.9854607,9.02713581 C11.3438058,9.08993547 11.7057735,8.93898511 11.9254355,8.63514094 C12.2990452,8.16582217 12.4862413,7.56349225 12.448186,6.95311758 C12.4173927,5.87186063 11.7421154,4.92786014 10.7617171,4.59552719 C9.69155681,4.28646015 8.54508147,4.55049374 7.69635194,5.30148168 C7.59517137,5.38966812 7.496762,5.48198779 7.40235199,5.57853988 C6.91279294,6.07856066 6.13102893,7.11609883 6.39445112,8.44864992 C6.57144114,9.37961158 7.20467557,10.1425662 8.05878184,10.4539244 C9.53570963,10.9486216 11.6579509,11.0081731 12.7761333,9.54831869 C12.885992,9.40939528 13.0816773,9.38870252 13.2157114,9.50183551 C13.3497454,9.6149685 13.372556,9.82008528 13.266952,9.9625999 C12.4400928,11.0422969 11.1818385,11.4285714 9.94742293,11.4285714 Z" id="Shape"></path>
                    <path d="M9.13677216,9.52360808 C8.79157242,9.52899496 8.45487191,9.42620074 8.18336702,9.23253467 C7.5565376,8.77698922 7.53929441,7.98561949 7.7150248,7.44668144 C7.7742057,7.26720012 7.85367069,7.09375859 7.95215142,6.92912534 C8.19718849,6.4801674 8.58899708,6.11092612 9.07397165,5.87191944 C9.6779232,5.58733903 10.4158204,5.69525654 10.890843,6.13763699 C11.1265079,6.37216395 11.3040227,6.64987369 11.4114046,6.95201975 C11.4682746,7.10534693 11.3793184,7.27177102 11.2114787,7.32605178 C11.0436391,7.38033254 10.858863,7.30243581 10.7962013,7.1509817 C10.7187757,6.92776001 10.5900803,6.72199454 10.4186145,6.54727499 C10.1416679,6.29008674 9.71013921,6.23156974 9.36253395,6.40406628 C8.99882818,6.59032672 8.70653834,6.87312605 8.52486725,7.21453445 C8.4485224,7.34245136 8.38685664,7.47715458 8.34084183,7.61652121 C8.21393451,8.00634902 8.24182408,8.51509729 8.59201121,8.76975316 C8.97485592,9.04893452 9.6207247,8.93090373 9.9841055,8.64623602 C10.2549125,8.42484437 10.4875982,8.16780042 10.6743886,7.8836919 C10.7348774,7.79165268 10.8453497,7.73641552 10.9633421,7.73921261 C11.0813346,7.74200967 11.1884829,7.80240564 11.2436011,7.89718537 C11.2987194,7.99196513 11.2932291,8.10637726 11.2292407,8.19644383 C11.0079916,8.53121552 10.7325458,8.83386001 10.4121483,9.0942192 C10.0550454,9.3678303 9.60398535,9.51969153 9.13677216,9.52360808 Z" id="Shape"></path>
                    <path d="M19,20 L1,20 C0.447966557,19.9994086 0.000606236667,19.5629662 0,19.0244054 L0,6.99207215 C5.24e-06,6.86596718 0.07473893,6.75123378 0.191761047,6.69767487 C0.308783163,6.64411596 0.446994117,6.66138844 0.5464,6.74199473 L8.72543333,13.373599 C9.46549113,13.9698693 10.5352326,13.9696782 11.2750667,13.3731437 L19.4533333,6.74199473 C19.5527322,6.66122331 19.6910569,6.64385236 19.8081824,6.69743247 C19.9253079,6.75101254 20.0000809,6.86586686 20,6.99207215 L20,19.0244054 C19.9993938,19.5629662 19.5520334,19.9994086 19,20 Z M0.666666667,7.68516706 L0.666666667,19.0244054 C0.666905397,19.2039108 0.81600406,19.3493707 1,19.3496036 L19,19.3496036 C19.1840264,19.3494422 19.3331679,19.2039405 19.3333333,19.0244054 L19.3333333,7.68516706 L11.7007,13.8736887 C10.7138224,14.669359 9.28691733,14.6695637 8.2998,13.8741765 L0.666666667,7.68516706 Z" id="Shape"></path>
                    <path d="M0.346924545,6.66666652 C0.195962341,6.6668014 0.0622757832,6.57072743 0.0164090038,6.42914124 C-0.029457779,6.287555 0.0230468094,6.13302831 0.146216984,6.04710218 L3.26548489,3.87031903 C3.42165458,3.7637669 3.63585539,3.80086447 3.7457069,3.95348897 C3.8555584,4.10611347 3.82009776,4.31735236 3.66620684,4.42707056 L0.546938935,6.60385371 C0.488530893,6.64476931 0.418611082,6.66672702 0.346924545,6.66666652 Z" id="Shape"></path>
                    <path d="M19.6530754,6.66666652 C19.5813889,6.66672702 19.5114691,6.64476931 19.4530611,6.60385371 L16.3337932,4.42707056 C16.1799022,4.31735236 16.1444416,4.10611347 16.2542931,3.95348897 C16.3641446,3.80086447 16.5783454,3.7637669 16.7345151,3.87031903 L19.853783,6.04710218 C19.9769532,6.13302831 20.0294578,6.287555 19.983591,6.42914124 C19.9377242,6.57072743 19.8040376,6.6668014 19.6530754,6.66666652 Z" id="Shape"></path>
                    <path d="M13.0073024,1.90466938 C12.9399183,1.90469911 12.8741948,1.88720191 12.8192559,1.85460682 L11.2633233,0.932759596 C10.5410561,0.422884342 9.48562618,0.417572973 8.75605841,0.920141982 L7.18059528,1.85463401 C7.08571172,1.91084599 6.96213838,1.92050006 6.85642418,1.8799596 C6.75070996,1.83941916 6.67891535,1.75484326 6.66808473,1.65809083 C6.65725407,1.5613384 6.70903281,1.46710844 6.80391637,1.41089646 L8.35984896,0.489049238 C9.32127677,-0.167674361 10.7051826,-0.162450792 11.6594677,0.501503693 L13.1958697,1.41078769 C13.3116485,1.4792547 13.3610224,1.60247389 13.317917,1.71537262 C13.2748115,1.82827134 13.149153,1.90485095 13.0073024,1.90466938 Z" id="Shape"></path>
                    <path d="M0.34554096,19.9999999 C0.200053376,20.0001167 0.0701012166,19.9162142 0.0206079072,19.7902095 C-0.0288853987,19.6642049 0.0127042271,19.5231459 0.124598827,19.4375049 L8.00256676,13.4090697 C8.09723049,13.3349325 8.22785037,13.3133717 8.34457693,13.3526157 C8.46130352,13.3918597 8.54612473,13.4858527 8.56666969,13.5987236 C8.58721461,13.7115945 8.54031295,13.825926 8.44386415,13.8980851 L0.565896216,19.9265204 C0.504044166,19.9740092 0.426065782,20.0000119 0.34554096,19.9999999 Z" id="Shape"></path>
                    <path d="M19.6544507,19.9999681 C19.5739865,20.0000118 19.4960639,19.9740152 19.4342973,19.9265204 L11.5561389,13.8980851 C11.4596878,13.825926 11.412785,13.7115945 11.4333304,13.5987236 C11.4538759,13.4858527 11.5386991,13.3918597 11.6554286,13.3526157 C11.7721579,13.3133717 11.902781,13.3349325 11.997447,13.4090697 L19.8753982,19.4375049 C19.9872955,19.5231459 20.0288861,19.6642049 19.9793916,19.7902095 C19.9298971,19.9162142 19.7999418,20.0001167 19.6544507,19.9999999 L19.6544507,19.9999681 Z" id="Shape"></path>
                    <path d="M16.8027211,9.52380952 C16.6148691,9.52380952 16.462585,9.37853404 16.462585,9.19932769 L16.462585,2.55647077 C16.4615986,2.56328489 16.4479592,2.55410205 16.4251701,2.55393981 L3.57482993,2.55393981 C3.55979517,2.55305891 3.54504024,2.55810276 3.53401361,2.56789253 L3.53741497,9.19932769 C3.53741497,9.37853404 3.38513085,9.52380952 3.19727891,9.52380952 C3.00942696,9.52380952 2.85714286,9.37853404 2.85714286,9.19932769 L2.85714286,2.55393981 C2.86811594,2.18594382 3.18904571,1.89574525 3.57482993,1.90497615 L16.4251701,1.90497615 C16.8109398,1.89578123 17.1318472,2.18595955 17.1428571,2.55393981 L17.1428571,9.19932769 C17.1428571,9.37853404 16.990573,9.52380952 16.8027211,9.52380952 Z" id="Shape"></path>
                </g>
            </g>
        </g>
    </g>
</svg>