<?xml version="1.0" encoding="UTF-8"?>
<svg width="20px" height="20px" viewBox="0 0 20 20" version="1.1" xmlns="http://www.w3.org/2000/svg" xmlns:xlink="http://www.w3.org/1999/xlink">
    <!-- Generator: Sketch 52.6 (67491) - http://www.bohemiancoding.com/sketch -->
    <title>Combined Shape</title>
    <desc>Created with Sketch.</desc>
    <g id="ASSETS" stroke="none" stroke-width="1" fill="none" fill-rule="evenodd">
        <g id="FAQ" transform="translate(-1311.000000, -139.000000)" fill="#000000" fill-rule="nonzero">
            <g id="Group" transform="translate(242.500000, 124.000000)">
                <g id="button-copy" transform="translate(1068.500000, 15.000000)">
                    <path d="M6.09375,10 C6.09375,9.56851562 6.44351562,9.21875 6.875,9.21875 L9.21875,9.21875 L9.21875,6.875 C9.21875,6.44351562 9.56851562,6.09375 10,6.09375 C10.4314844,6.09375 10.78125,6.44351562 10.78125,6.875 L10.78125,9.21875 L13.125,9.21875 C13.5564844,9.21875 13.90625,9.56851562 13.90625,10 C13.90625,10.4314844 13.5564844,10.78125 13.125,10.78125 L10.78125,10.78125 L10.78125,13.125 C10.78125,13.5564844 10.4314844,13.90625 10,13.90625 C9.56851562,13.90625 9.21875,13.5564844 9.21875,13.125 L9.21875,10.78125 L6.875,10.78125 C6.44351562,10.78125 6.09375,10.4314844 6.09375,10 Z M6.26585937,2.4140625 C5.8659375,2.57960938 5.4096875,2.38859375 5.24507812,1.99128906 C5.07992187,1.59265625 5.26925781,1.13566406 5.66785156,0.970507813 L6.67835937,0.551914063 C7.07703125,0.386640625 7.53398437,0.576054688 7.69914062,0.9746875 C7.86429687,1.37332031 7.67496094,1.8303125 7.27636719,1.99546875 L6.26585937,2.4140625 Z M10,0 C15.5274609,0 20,4.47332031 20,10 C20,15.5274609 15.5266797,20 10,20 C4.47253906,20 0,15.5266797 0,10 C0,9.56851562 0.349765625,9.21875 0.78125,9.21875 C1.21273437,9.21875 1.5625,9.56851562 1.5625,10 C1.5625,14.66375 5.33679688,18.4375 10,18.4375 C14.66375,18.4375 18.4375,14.6632031 18.4375,10 C18.4375,5.33625 14.6632031,1.5625 10,1.5625 C9.56851562,1.5625 9.21875,1.21273437 9.21875,0.78125 C9.21875,0.349765625 9.56851562,0 10,0 Z M3.64710938,4.42050781 C3.34199219,4.725625 2.84726563,4.72554687 2.54222656,4.42050781 C2.23710938,4.11542969 2.23710938,3.62074219 2.54222656,3.315625 L3.315625,2.54222656 C3.62070313,2.23710937 4.11539063,2.23714844 4.42050781,2.54222656 C4.725625,2.84730469 4.725625,3.34199219 4.42050781,3.64710937 L3.64710938,4.42050781 Z M0.9746875,7.69917969 C0.57609375,7.53402344 0.386757813,7.07703125 0.551914063,6.67835937 L0.970507813,5.66785156 C1.13566406,5.26925781 1.59257813,5.07996094 1.99128906,5.24507812 C2.38988281,5.41023437 2.57921875,5.86722656 2.4140625,6.26585937 L1.99546875,7.27640625 C1.83070313,7.67410156 1.37417969,7.86464844 0.9746875,7.69917969 Z" id="Combined-Shape"></path>
                </g>
            </g>
        </g>
    </g>
</svg>