<?xml version="1.0" encoding="UTF-8"?>
<svg width="31px" height="31px" viewBox="0 0 31 31" version="1.1" xmlns="http://www.w3.org/2000/svg" xmlns:xlink="http://www.w3.org/1999/xlink">
    <!-- Generator: Sketch 52.6 (67491) - http://www.bohemiancoding.com/sketch -->
    <title>instagram (1)</title>
    <desc>Created with Sketch.</desc>
    <g id="ASSETS" stroke="none" stroke-width="1" fill="none" fill-rule="evenodd">
        <g id="Footer" transform="translate(-1199.000000, -272.000000)" fill="#084c35" fill-rule="nonzero">
            <g id="Group-3" transform="translate(1141.000000, 92.000000)">
                <g id="instagram-(1)" transform="translate(58.000000, 180.000000)">
                    <path d="M23.078125,0.578125 C27.2136675,0.578125 30.578125,3.94258255 30.578125,8.078125 L30.578125,23.078125 C30.578125,27.2136675 27.2136675,30.578125 23.078125,30.578125 L18.8092807,30.578125 C18.4185024,30.578125 18.1017335,30.2613561 18.1017335,29.8705778 C18.1017335,29.4797995 18.4185024,29.1630307 18.8092807,29.1630307 L23.078125,29.1630307 C26.4333137,29.1630307 29.1630307,26.4333137 29.1630307,23.078125 L29.1630307,8.078125 C29.1630307,4.72293632 26.4333137,1.99321934 23.078125,1.99321934 L8.078125,1.99321934 C4.72293632,1.99321934 1.99321934,4.72293632 1.99321934,8.078125 L1.99321934,23.078125 C1.99321934,26.4333137 4.72293632,29.1630307 8.078125,29.1630307 L12.3941627,29.1630307 C12.784941,29.1630307 13.1017099,29.4797995 13.1017099,29.8705778 C13.1017099,30.2613561 12.784941,30.578125 12.3941627,30.578125 L8.078125,30.578125 C3.94258255,30.578125 0.578125,27.2136675 0.578125,23.078125 L0.578125,8.078125 C0.578125,3.94258255 3.94258255,0.578125 8.078125,0.578125 L23.078125,0.578125 Z M16.0783608,29.370342 C16.2099646,29.5019458 16.2856722,29.6844929 16.2856722,29.8705778 C16.2856722,30.0566627 16.2099646,30.2392099 16.0783608,30.3708137 C15.9467571,30.5024175 15.7642099,30.578125 15.578125,30.578125 C15.3920401,30.578125 15.2094929,30.5024175 15.0778892,30.3708137 C14.9462854,30.2392099 14.8705778,30.0566627 14.8705778,29.8705778 C14.8705778,29.6844929 14.9462854,29.5019458 15.0778892,29.370342 C15.2094929,29.2387382 15.3920401,29.1630307 15.578125,29.1630307 C15.7642099,29.1630307 15.9467571,29.2387382 16.0783608,29.370342 Z M9.90571934,8.48213443 C10.1728892,8.76727594 10.1582429,9.21508255 9.87310142,9.48225236 L9.84543632,9.50821934 C9.70873821,9.63720519 9.53418632,9.70116745 9.35998821,9.70116745 C9.17199292,9.70116745 8.98442217,9.62673349 8.84524764,9.47920991 C8.57701651,9.19498821 8.59003538,8.7471816 8.87425708,8.47902123 L8.90560142,8.44951651 C9.19081368,8.18241745 9.63847877,8.19699292 9.90571934,8.48213443 Z M15.578125,5.81397406 C20.9620637,5.81397406 25.3422759,10.1941863 25.3422759,15.578125 C25.3422759,20.9620637 20.9620637,25.3422759 15.578125,25.3422759 C10.1941863,25.3422759 5.81397406,20.9620637 5.81397406,15.578125 C5.81397406,13.8888561 6.25244104,12.2237854 7.08196934,10.7629835 C7.27498821,10.4231486 7.70680425,10.3042099 8.04663915,10.4970873 C8.38647406,10.6901061 8.50548349,11.1219929 8.31253538,11.4617571 C7.60371462,12.709941 7.2290684,14.1333844 7.2290684,15.578125 C7.2290684,20.1817807 10.9744693,23.9271816 15.578125,23.9271816 C20.1817807,23.9271816 23.9271816,20.1817807 23.9271816,15.578125 C23.9271816,10.9744693 20.1817807,7.2290684 15.578125,7.2290684 C14.2298939,7.2290684 12.9433608,7.54024764 11.7543278,8.15404481 C11.4071344,8.33319575 10.980342,8.19706368 10.8010495,7.84987028 C10.6218278,7.50260613 10.7580307,7.07581368 11.1052241,6.89659198 C12.4773703,6.18833726 14.0240684,5.81397406 15.578125,5.81397406 Z M15.578125,9.21020047 C19.0893986,9.21020047 21.9460495,12.0668514 21.9460495,15.578125 C21.9460495,19.0893986 19.0893986,21.9460495 15.578125,21.9460495 C12.0668514,21.9460495 9.21020047,19.0893986 9.21020047,15.578125 C9.21020047,12.0668514 12.0668514,9.21020047 15.578125,9.21020047 Z M15.578125,20.5309552 C18.3091156,20.5309552 20.5309552,18.3091156 20.5309552,15.578125 C20.5309552,12.8471344 18.3091156,10.6252948 15.578125,10.6252948 C12.8471344,10.6252948 10.6252948,12.8471344 10.6252948,15.578125 C10.6252948,18.3091156 12.8471344,20.5309552 15.578125,20.5309552 Z M24.8646816,3.60288915 C26.3472052,3.60288915 27.5533608,4.80904481 27.5533608,6.2915684 C27.5533608,7.77409198 26.3472052,8.98024764 24.8646816,8.98024764 C23.382158,8.98024764 22.1760024,7.77409198 22.1760024,6.2915684 C22.1760024,4.80904481 23.382158,3.60288915 24.8646816,3.60288915 Z M24.8646816,7.5651533 C25.5669222,7.5651533 26.1382665,6.99380896 26.1382665,6.2915684 C26.1382665,5.58932783 25.5669222,5.01798349 24.8646816,5.01798349 C24.162441,5.01798349 23.5910967,5.58932783 23.5910967,6.2915684 C23.5910967,6.99380896 24.162441,7.5651533 24.8646816,7.5651533 Z" id="Combined-Shape"></path>
                </g>
            </g>
        </g>
    </g>
</svg>