<?xml version="1.0" encoding="utf-8"?>
<!-- Generator: Adobe Illustrator 22.0.0, SVG Export Plug-In . SVG Version: 6.00 Build 0)  -->
<svg version="1.1" id="Capa_1" xmlns="http://www.w3.org/2000/svg" xmlns:xlink="http://www.w3.org/1999/xlink" x="0px" y="0px"
	 width="30px" height="30px" viewBox="0 0 30 30" style="enable-background:new 0 0 30 30;" xml:space="preserve">
<style type="text/css">
	.st0{fill:#084C35;}
</style>
<g>
	<g>
		<path class="st0" d="M26.1,0H3.9C1.7,0,0,1.7,0,3.9v22.3C0,28.3,1.7,30,3.9,30h22.3c2.1,0,3.9-1.7,3.9-3.9V3.9
			C30,1.7,28.3,0,26.1,0z M28.8,26.1c0,1.5-1.2,2.7-2.7,2.7H3.9c-1.5,0-2.7-1.2-2.7-2.7V3.9c0-1.5,1.2-2.7,2.7-2.7h22.3
			c1.5,0,2.7,1.2,2.7,2.7V26.1z"/>
	</g>
</g>
<g>
	<g>
		<path class="st0" d="M24.2,12.3C24.2,12.3,24.2,12.3,24.2,12.3c-0.8-1-2-1.4-3.4-1.4c-1,0-1.9,0.2-2.7,0.6
			c-0.4,0.2-0.7,0.5-1.1,0.8v-0.6c0-0.3-0.3-0.6-0.6-0.6h-4.3c-0.3,0-0.6,0.3-0.6,0.6v13c0,0.3,0.3,0.6,0.6,0.6h4.2
			c0.3,0,0.6-0.3,0.6-0.6v-7.4c0-1,0.7-1.8,1.6-1.8l0.1,0c0.4,0,0.7,0.1,1,0.4c0.3,0.3,0.5,0.7,0.5,1.1v7.8c0,0.3,0.3,0.6,0.6,0.6h4
			c0.3,0,0.6-0.3,0.6-0.6v-8.3C25.4,14.7,25,13.2,24.2,12.3z M24.2,24.2h-2.8h0V17c0-0.7-0.3-1.5-0.8-2c-0.5-0.5-1.2-0.7-1.9-0.7
			l-0.1,0c-1.5,0.1-2.8,1.4-2.8,3v6.8h-3.1V12.3h3.1v1.5c0,0.3,0.2,0.5,0.4,0.6c0.2,0.1,0.5,0,0.7-0.2c0.6-0.8,1.2-1.4,1.8-1.7
			c0.6-0.3,1.3-0.5,2.1-0.5c1.1,0,1.9,0.3,2.5,1l0,0c0.6,0.7,0.9,1.9,0.9,3.4L24.2,24.2L24.2,24.2z"/>
	</g>
</g>
<g>
	<g>
		<path class="st0" d="M9.7,11.2H5.5c-0.3,0-0.6,0.3-0.6,0.6v4.9c0,0.3,0.3,0.6,0.6,0.6S6,17,6,16.6v-4.3h3.1v11.9H6v-2.6
			C6,21.3,5.8,21,5.5,21s-0.6,0.3-0.6,0.6v3.2c0,0.3,0.3,0.6,0.6,0.6h4.3c0.3,0,0.6-0.3,0.6-0.6v-13C10.3,11.4,10,11.2,9.7,11.2z"/>
	</g>
</g>
<g>
	<g>
		<path class="st0" d="M5.9,18.9c-0.1-0.1-0.3-0.2-0.4-0.2c-0.2,0-0.3,0.1-0.4,0.2c-0.1,0.1-0.2,0.3-0.2,0.4s0.1,0.3,0.2,0.4
			c0.1,0.1,0.3,0.2,0.4,0.2c0.2,0,0.3-0.1,0.4-0.2C6,19.6,6,19.4,6,19.3S6,19,5.9,18.9z"/>
	</g>
</g>
<g>
	<g>
		<path class="st0" d="M7.6,4.6c-1.6,0-3,1.3-3,3s1.3,3,3,3s3-1.3,3-3S9.2,4.6,7.6,4.6z M7.6,9.4c-1,0-1.8-0.8-1.8-1.8
			s0.8-1.8,1.8-1.8c1,0,1.8,0.8,1.8,1.8S8.6,9.4,7.6,9.4z"/>
	</g>
</g>
<g>
	<g>
		<path class="st0" d="M22.8,2.8H18c-0.3,0-0.6,0.3-0.6,0.6S17.7,4,18,4h4.8c0.3,0,0.6-0.3,0.6-0.6S23.1,2.8,22.8,2.8z"/>
	</g>
</g>
<g>
	<g>
		<path class="st0" d="M15.3,2.8L15.3,2.8c-0.3,0-0.6,0.3-0.6,0.6S15,4,15.3,4h0c0.3,0,0.6-0.3,0.6-0.6S15.7,2.8,15.3,2.8z"/>
	</g>
</g>
</svg>
