<?xml version="1.0" encoding="UTF-8"?>
<svg width="12px" height="16px" viewBox="0 0 12 16" version="1.1" xmlns="http://www.w3.org/2000/svg" xmlns:xlink="http://www.w3.org/1999/xlink">
    <!-- Generator: Sketch 52.6 (67491) - http://www.bohemiancoding.com/sketch -->
    <title>lock</title>
    <desc>Created with Sketch.</desc>
    <g id="ASSETS" stroke="none" stroke-width="1" fill="none" fill-rule="evenodd">
        <g id="Subscibe" transform="translate(-814.000000, -79.000000)" fill="#959595" fill-rule="nonzero">
            <g id="Group-2" transform="translate(165.000000, 0.000000)">
                <g id="protection" transform="translate(649.000000, 79.000000)">
                    <path d="M4.72641509,12.5585371 C4.72641509,13.253303 5.29771698,13.8184898 6,13.8184898 C6.70228302,13.8184898 7.27358491,13.253303 7.27358491,12.5585371 L7.27358491,11.4574503 C7.44045283,11.2093796 7.52830189,10.9219424 7.52830189,10.6217377 C7.52830189,10.2075212 7.35367925,9.80680024 7.04920755,9.52233091 C6.74037736,9.23382973 6.3360566,9.08840318 5.91079245,9.11231429 C5.15926415,9.15487269 4.54313208,9.74593053 4.47764151,10.4871187 C4.44724528,10.8308898 4.53537736,11.172701 4.72641509,11.4573943 L4.72641509,12.5585371 Z M5.3235283,10.560252 C5.35250943,10.2317683 5.62590566,9.96986613 5.95935849,9.95093884 C5.9729434,9.95015487 5.9864717,9.94976288 5.9999434,9.94976288 C6.17456604,9.94976288 6.33888679,10.0139925 6.46624528,10.133044 C6.60362264,10.2613912 6.67924528,10.4349287 6.67924528,10.6217377 C6.67924528,10.7658203 6.63379245,10.9030711 6.54786792,11.0188188 C6.46720755,11.1273987 6.4245283,11.2577618 6.4245283,11.3956847 L6.4245283,12.5584811 C6.4245283,12.7900884 6.23411321,12.9784653 6,12.9784653 C5.76588679,12.9784653 5.5754717,12.7900884 5.5754717,12.5584811 L5.5754717,11.3956287 C5.5754717,11.2578178 5.53279245,11.1273987 5.45201887,11.0186508 C5.38313208,10.9258623 5.30484906,10.7709721 5.3235283,10.560252 Z M2.55769811,2.72586578 C2.68256604,2.52953714 2.62290566,2.27026686 2.42445283,2.1467355 C2.226,2.02314813 1.96386792,2.08228191 1.8390566,2.27855455 C1.34728302,3.05182956 1.08735849,3.94449208 1.08735849,4.86005775 L1.08735849,7.19601015 C0.439188679,7.55585266 3.90798505e-14,8.24210692 3.90798505e-14,9.02826144 L3.90798505e-14,13.9000787 C3.90798505e-14,15.0580033 0.952188679,16 2.12264151,16 L9.87735849,16 C11.0478113,16 12,15.0580033 12,13.9000787 L12,9.02826144 C12,8.24210692 11.5608113,7.55590865 10.9126415,7.19601015 L10.9126415,4.86005775 C10.9126415,2.18022224 8.70883019,0 6,0 C5.06445283,0 4.15381132,0.262350162 3.36650943,0.758715548 C3.16879245,0.883366874 3.11066038,1.14297314 3.23666038,1.3385738 C3.36271698,1.53417447 3.62507547,1.59174031 3.82279245,1.46703299 C4.47350943,1.05679237 5.22633962,0.839968501 5.9999434,0.839968501 C8.24060377,0.839968501 10.0635283,2.64338087 10.0635283,4.86005775 L10.0635283,6.93690787 C10.0021132,6.93158807 9.94007547,6.92834019 9.87730189,6.92834019 L9.2144717,6.92834019 L9.2144717,4.86005775 C9.2144717,4.01051361 8.8800566,3.21175956 8.27258491,2.6107901 C7.66511321,2.01049261 6.858,1.679881 5.9999434,1.679881 C4.22745283,1.679881 2.78541509,3.10648351 2.78541509,4.86000175 L2.78541509,6.92828419 L2.12258491,6.92828419 C2.05981132,6.92828419 1.99777358,6.93153207 1.93635849,6.93685187 L1.93635849,4.86005775 C1.93641509,4.10296614 2.15128302,3.36496981 2.55769811,2.72586578 Z M3.6345283,4.86005775 C3.6345283,3.56969814 4.69567925,2.5199055 6,2.5199055 C6.6314717,2.5199055 7.2254717,2.76327238 7.6724717,3.20492782 C8.11935849,3.64708723 8.3654717,4.23489719 8.3654717,4.86005775 L8.3654717,6.92834019 L3.6345283,6.92834019 L3.6345283,4.86005775 Z M2.12264151,7.76830869 L9.87735849,7.76830869 C10.5796415,7.76830869 11.1509434,8.33349549 11.1509434,9.02826144 L11.1509434,13.9000787 C11.1509434,14.5948447 10.5796415,15.1600315 9.87735849,15.1600315 L2.12264151,15.1600315 C1.42035849,15.1600315 0.849056604,14.5948447 0.849056604,13.9000787 L0.849056604,9.02826144 C0.849056604,8.33349549 1.42041509,7.76830869 2.12264151,7.76830869 Z" id="lock"></path>
                </g>
            </g>
        </g>
    </g>
</svg>