<?xml version="1.0" encoding="utf-8"?>
<!-- Generator: Adobe Illustrator 22.0.0, SVG Export Plug-In . SVG Version: 6.00 Build 0)  -->
<svg version="1.1" id="Layer_1" xmlns="http://www.w3.org/2000/svg" xmlns:xlink="http://www.w3.org/1999/xlink" x="0px" y="0px"
	 width="17.6px" height="15px" viewBox="0 0 17.6 15" style="enable-background:new 0 0 17.6 15;" xml:space="preserve">
<style type="text/css">
	.st0{fill:#FFFFFF;}
</style>
<title>Path</title>
<desc>Created with Sketch.</desc>
<g id="pages">
	<g id="Screenshot" transform="translate(-581.000000, -860.000000)">
		<g id="Group" transform="translate(487.000000, 861.000000)">
			<g id="heart-simple-shape-silhouette" transform="translate(95.000000, 0.000000)">
				<g id="Path">
					<path class="st0" d="M7.8,14l-0.2-0.1C7.2,13.6-1,8.4-1,3.9C-1,0.9,0.9-1,4-1c1.4,0,2.8,0.6,3.7,1.6c1-1,2.3-1.6,3.7-1.6
						c2.8,0,5,2.2,5,4.9c0,4.3-8.2,9.7-8.5,9.9L7.8,14z M4-0.1c-2.6,0-4.2,1.5-4.2,4.1c0,3.6,6.6,8.1,7.9,9c1.3-0.9,7.9-5.6,7.9-9
						c0-2.2-1.9-4.1-4.2-4.1c-1.3,0-2.6,0.6-3.4,1.7L7.8,2L7.4,1.6C6.6,0.5,5.4-0.1,4-0.1z"/>
				</g>
			</g>
		</g>
	</g>
</g>
</svg>
