<?xml version="1.0" encoding="utf-8"?>
<!-- Generator: Adobe Illustrator 22.0.0, SVG Export Plug-In . SVG Version: 6.00 Build 0)  -->
<svg version="1.1" id="Capa_1" xmlns="http://www.w3.org/2000/svg" xmlns:xlink="http://www.w3.org/1999/xlink" x="0px" y="0px"
	 width="120px" height="120px" viewBox="0 0 120 120" style="enable-background:new 0 0 120 120;" xml:space="preserve">
<style type="text/css">
	.st0{fill:url(#SVGID_1_);}
	.st1{fill:url(#SVGID_2_);}
</style>
<g>
	
		<linearGradient id="SVGID_1_" gradientUnits="userSpaceOnUse" x1="60" y1="392" x2="60" y2="512" gradientTransform="matrix(1 0 0 -1 0 512)">
		<stop  offset="0" style="stop-color:#087035"/>
		<stop  offset="1" style="stop-color:#08C435"/>
	</linearGradient>
	<path class="st0" d="M119.3,36.8c-0.7-0.9-1.7-1.4-2.8-1.4H91.3c-1.7-10-10.4-17.6-20.8-17.6s-19.1,7.6-20.8,17.6H27.9L23.3,3
		c-0.2-1.7-1.7-3-3.5-3H3.5C1.6,0,0,1.6,0,3.5S1.6,7,3.5,7h13.3l4.6,32.4v0v0l5.3,37.4c0.6,4,2.5,7.7,5.5,10.5
		c-2.3,1.9-3.8,4.9-3.8,8.1c0,4.9,3.3,9,7.8,10.2c-0.5,1.2-0.7,2.5-0.7,3.9c0,5.8,4.7,10.5,10.5,10.5s10.5-4.7,10.5-10.5
		c0-1.2-0.2-2.4-0.6-3.5h29.3c-0.4,1.1-0.6,2.3-0.6,3.5c0,5.8,4.7,10.5,10.5,10.5c5.8,0,10.5-4.7,10.5-10.5S101,98.9,95.2,98.9H38.9
		c-1.9,0-3.5-1.6-3.5-3.5c0-1.9,1.6-3.5,3.5-3.5h52.7c7.8,0,14.8-5.2,16.9-12.7l11.4-39.3C120.2,38.8,120,37.7,119.3,36.8
		L119.3,36.8z"/>
	<g>
		<g>
			
				<linearGradient id="SVGID_2_" gradientUnits="userSpaceOnUse" x1="70.5469" y1="448.4844" x2="70.5469" y2="497.7031" gradientTransform="matrix(1 0 0 -1 0 512)">
				<stop  offset="0" style="stop-color:#E7BF7B"/>
				<stop  offset="0.9973" style="stop-color:#E7F07B"/>
			</linearGradient>
			<path class="st1" d="M70.5,14.3c-13.6,0-24.6,11-24.6,24.6s11,24.6,24.6,24.6s24.6-11,24.6-24.6S84.1,14.3,70.5,14.3z M80.1,37.9
				L69.5,48.4c-0.7,0.7-1.6,1-2.5,1c-0.9,0-1.8-0.3-2.5-1L61,44.9c-1.4-1.4-1.4-3.6,0-5c1.4-1.4,3.6-1.4,5,0l1,1l8.1-8.1
				c1.4-1.4,3.6-1.4,5,0C81.4,34.3,81.4,36.5,80.1,37.9L80.1,37.9z"/>
		</g>
	</g>
</g>
</svg>
