<?xml version="1.0" encoding="UTF-8"?>
<svg width="14px" height="24px" viewBox="0 0 14 24" version="1.1" xmlns="http://www.w3.org/2000/svg" xmlns:xlink="http://www.w3.org/1999/xlink">
    <!-- Generator: Sketch 52.6 (67491) - http://www.bohemiancoding.com/sketch -->
    <title>phone</title>
    <desc>Created with Sketch.</desc>
    <g id="ASSETS" stroke="none" stroke-width="1" fill="none" fill-rule="evenodd">
        <g id="Footer" transform="translate(-1145.000000, -145.000000)" fill="#FFFFFF" fill-rule="nonzero">
            <g id="Group-3" transform="translate(1141.000000, 92.000000)">
                <g id="phone" transform="translate(4.000000, 53.000000)">
                    <path d="M12.0703125,0 L1.7578125,0 C0.78853125,0 0,0.78853125 0,1.7578125 L0,22.2421875 C0,23.2114688 0.78853125,24 1.7578125,24 L12.0703125,24 C13.0395937,24 13.828125,23.2114688 13.828125,22.2421875 L13.828125,1.7578125 C13.828125,0.78853125 13.0395937,0 12.0703125,0 Z M13.125,19.078125 L3.1640625,19.078125 C2.96990625,19.078125 2.8125,19.2355313 2.8125,19.4296875 C2.8125,19.6238437 2.96990625,19.78125 3.1640625,19.78125 L13.125,19.78125 L13.125,22.2421875 C13.125,22.8237656 12.6518906,23.296875 12.0703125,23.296875 L1.7578125,23.296875 C1.17623437,23.296875 0.703125,22.8237656 0.703125,22.2421875 L0.703125,19.78125 L1.7578125,19.78125 C1.95196875,19.78125 2.109375,19.6238437 2.109375,19.4296875 C2.109375,19.2355313 1.95196875,19.078125 1.7578125,19.078125 L0.703125,19.078125 L0.703125,3.515625 L13.125,3.515625 L13.125,19.078125 Z M13.125,2.8125 L0.703125,2.8125 L0.703125,1.7578125 C0.703125,1.17623437 1.17623437,0.703125 1.7578125,0.703125 L12.0703125,0.703125 C12.6518906,0.703125 13.125,1.17623437 13.125,1.7578125 L13.125,2.8125 Z" id="Shape"></path>
                    <path d="M8.3203125,1.40625 L6.9140625,1.40625 C6.71990625,1.40625 6.5625,1.56365625 6.5625,1.7578125 C6.5625,1.95196875 6.71990625,2.109375 6.9140625,2.109375 L8.3203125,2.109375 C8.51446875,2.109375 8.671875,1.95196875 8.671875,1.7578125 C8.671875,1.56365625 8.51446875,1.40625 8.3203125,1.40625 Z" id="Path"></path>
                    <path d="M6.9140625,20.484375 C6.33248437,20.484375 5.859375,20.9574844 5.859375,21.5390625 C5.859375,22.1206406 6.33248437,22.59375 6.9140625,22.59375 C7.49564063,22.59375 7.96875,22.1206406 7.96875,21.5390625 C7.96875,20.9574844 7.49564062,20.484375 6.9140625,20.484375 Z M6.9140625,21.890625 C6.7201875,21.890625 6.5625,21.7329375 6.5625,21.5390625 C6.5625,21.3451875 6.7201875,21.1875 6.9140625,21.1875 C7.1079375,21.1875 7.265625,21.3451875 7.265625,21.5390625 C7.265625,21.7329375 7.1079375,21.890625 6.9140625,21.890625 Z" id="Shape"></path>
                    <circle id="Oval" cx="5.5078125" cy="1.7578125" r="1"></circle>
                </g>
            </g>
        </g>
    </g>
</svg>