<?xml version="1.0" encoding="UTF-8"?>
<svg width="26px" height="16px" viewBox="0 0 26 16" version="1.1" xmlns="http://www.w3.org/2000/svg" xmlns:xlink="http://www.w3.org/1999/xlink">
    <!-- Generator: Sketch 52.6 (67491) - http://www.bohemiancoding.com/sketch -->
    <title>send</title>
    <desc>Created with Sketch.</desc>
    <g id="ASSETS" stroke="none" stroke-width="1" fill="none" fill-rule="evenodd">
        <g id="Subscibe" transform="translate(-1366.000000, -41.000000)" fill="#084C35" fill-rule="nonzero">
            <g id="Group" transform="translate(1221.000000, 35.000000)">
                <g id="send" transform="translate(145.000000, 6.000000)">
                    <path d="M20.4434225,7.1153905 C20.3067361,7.11448079 20.182084,7.03706243 20.1206784,6.91494218 C20.0592729,6.79282192 20.0714686,6.64659256 20.1522551,6.53633132 L20.7928234,5.66282909 C20.9140751,5.50839461 21.1359674,5.47797428 21.2943085,5.59407799 C21.4526496,5.7101817 21.4903557,5.93095275 21.3795257,6.09302894 L20.7389574,6.96653116 C20.6700017,7.06065418 20.5601001,7.11601101 20.4434225,7.1153905 Z" id="Path"></path>
                    <path d="M14.9148814,14.6784639 C14.8443472,14.6783416 14.7753466,14.6578689 14.7161596,14.6195025 L7.81185244,10.1136869 C7.70486091,10.0438972 7.6422886,9.92312543 7.64698343,9.79547065 C7.65167826,9.66781588 7.72295293,9.55196664 7.83478187,9.49022467 L20.3236799,2.5931967 L5.36095078,8.33974945 C5.25036593,8.38234228 5.12600529,8.3687806 5.02720014,8.30335353 L0.161064832,5.02990394 C0.0377780611,4.94710875 -0.0228398406,4.79771311 0.00789961759,4.65242114 C0.0386390758,4.50712917 0.154569664,4.39508594 0.300825188,4.36931788 L25.0442315,0.00653823385 C25.1083482,-0.00578147744 25.1745983,-0.00062729434 25.2360381,0.0214605635 L25.245865,0.0214605635 L25.2480487,0.0214605635 C25.328921,0.0537126384 25.3955522,0.113887329 25.4358517,0.191065579 C25.4433764,0.205416316 25.449942,0.220249809 25.4555055,0.235468608 C25.4792364,0.300764645 25.4837829,0.37148867 25.468608,0.439285794 C25.4626028,0.465666326 25.453692,0.491299973 25.442039,0.515717239 C25.4313908,0.538517383 25.4183354,0.560113715 25.4030954,0.580138028 L22.8812216,4.03265557 C22.8048619,4.13873692 22.6774828,4.19572689 22.5475035,4.1819625 C22.4175243,4.16819811 22.3049066,4.08579325 22.2524587,3.96607158 C22.2000108,3.84634992 22.2157873,3.70769785 22.2937914,3.60281968 L23.8471695,1.4791174 L8.71665516,9.83489409 L14.8249834,13.8209759 L16.517394,11.5047392 C16.6359894,11.3421228 16.8639566,11.3064367 17.026573,11.4250321 C17.1891894,11.5436275 17.2248755,11.7715947 17.1062801,11.9342111 L15.2100523,14.5292406 C15.1412499,14.6233969 15.0314961,14.6788828 14.9148814,14.6784639 Z M1.31627152,4.92945119 L5.27760411,7.59217713 L21.457413,1.37830069 L1.31627152,4.92945119 Z" id="Shape"></path>
                    <path d="M18.3142608,10.0270646 C18.1771814,10.0269725 18.0517803,9.94986798 17.9898318,9.82758486 C17.9278832,9.70530173 17.9398957,9.55858351 18.0209097,9.4480054 L18.6469196,8.59270114 C18.7237674,8.48776683 18.8507595,8.43180135 18.9800592,8.44588634 C19.1093588,8.45997134 19.2213224,8.54196696 19.2737743,8.66098626 C19.3262262,8.78000557 19.3111977,8.91796668 19.2343499,9.02290098 L18.607976,9.87820525 C18.5393982,9.97180886 18.4302977,10.0271027 18.3142608,10.0270646 Z" id="Path"></path>
                    <path d="M8.01021024,16 C7.85729286,15.999893 7.72075021,15.9042113 7.66845249,15.7605148 L4.88707582,8.12355765 C4.84165881,8.00118162 4.86525414,7.8638549 4.94891364,7.76365665 C5.03257313,7.66345841 5.16348435,7.61573399 5.29200112,7.63858218 C5.42051789,7.66143038 5.52695788,7.75135199 5.57095527,7.87424556 L7.64552306,13.5731197 L7.64552306,9.8097809 C7.64552306,9.60877176 7.80847317,9.44582164 8.00948232,9.44582164 C8.21049147,9.44582164 8.37344158,9.60877176 8.37344158,9.8097809 L8.37344158,15.6360407 C8.3734865,15.8126537 8.24673009,15.96381 8.07281123,15.9945406 C8.05213357,15.9981075 8.03119317,15.9999337 8.01021024,16 Z" id="Path"></path>
                    <path d="M8.01057419,15.9981802 C7.85777442,15.9984251 7.72109068,15.9032027 7.66837625,15.7597836 C7.61566182,15.6163646 7.65814202,15.4552895 7.77472859,15.35652 L11.6578099,12.0626887 C11.7569579,11.9785592 11.893457,11.9537152 12.0158892,11.9975151 C12.1383215,12.041315 12.2280866,12.1471046 12.2513709,12.275034 C12.2746551,12.4029634 12.2279212,12.5335971 12.1287732,12.6177266 L8.24569188,15.9119219 C8.17999083,15.9675825 8.09668304,15.9981459 8.01057419,15.9981802 Z" id="Path"></path>
                </g>
            </g>
        </g>
    </g>
</svg>