<?xml version="1.0" encoding="UTF-8"?>
<svg width="15px" height="14px" viewBox="0 0 15 14" version="1.1" xmlns="http://www.w3.org/2000/svg" xmlns:xlink="http://www.w3.org/1999/xlink">
    <!-- Generator: Sketch 52.6 (67491) - http://www.bohemiancoding.com/sketch -->
    <title>Path</title>
    <desc>Created with Sketch.</desc>
    <defs>
        <linearGradient x1="50%" y1="100%" x2="50%" y2="3.061617e-15%" id="linearGradient-1">
            <stop stop-color="#E7C671" offset="0%"></stop>
            <stop stop-color="#FBF7BF" offset="100%"></stop>
        </linearGradient>
    </defs>
    <g id="pages" stroke="none" stroke-width="1" fill="none" fill-rule="evenodd">
        <g id="Product" transform="translate(-1323.000000, -327.000000)" fill="url(#linearGradient-1)" fill-rule="nonzero">
            <g id="Group" transform="translate(1243.000000, 326.000000)">
                <path d="M94.9607551,6.28980532 C94.8619911,5.99398909 94.5925931,5.78455474 94.2751291,5.75657814 L89.9450765,5.37371124 L88.2338154,1.47170097 C88.1074707,1.18502448 87.8199907,1 87.500009,1 C87.1800273,1 86.8924329,1.18502448 86.7668893,1.47170097 L85.0556282,5.37371124 L80.7248889,5.75657814 C80.407425,5.78511204 80.1385991,5.99454638 80.0392629,6.28980532 C79.9404989,6.58562159 80.0317097,6.9100832 80.2718104,7.11517058 L83.544985,9.91048924 L82.57989,14.0503563 C82.5092789,14.354755 82.6305881,14.6695195 82.8899152,14.8520919 C83.0293064,14.9507344 83.1930738,15 83.3574135,15 C83.4986357,15 83.6399724,14.9634409 83.7662027,14.889877 L87.500009,12.715505 L91.2331287,14.889877 C91.50699,15.0492656 91.8513479,15.0346642 92.1101028,14.8520919 C92.3694299,14.6695195 92.4907391,14.354755 92.420128,14.0503563 L91.455033,9.91048924 L94.7282076,7.11517058 C94.9681939,6.9100832 95.0595191,6.58629036 94.9607551,6.28980532 Z" id="Path"></path>
            </g>
        </g>
    </g>
</svg>