<?xml version="1.0" encoding="UTF-8"?>
<svg width="18px" height="16px" viewBox="0 0 18 16" version="1.1" xmlns="http://www.w3.org/2000/svg" xmlns:xlink="http://www.w3.org/1999/xlink">
    <!-- Generator: Sketch 52.6 (67491) - http://www.bohemiancoding.com/sketch -->
    <title>Combined Shape</title>
    <desc>Created with Sketch.</desc>
    <g id="pages" stroke="none" stroke-width="1" fill="none" fill-rule="evenodd">
        <g id="Product" transform="translate(-1009.000000, -566.000000)" fill="#084C35" fill-rule="nonzero">
            <g id="checkmark-copy" transform="translate(1009.000000, 566.000000)">
                <path d="M8.00006659,16 C3.58914348,16 -4.81392703e-14,12.4109897 -4.81392703e-14,8.00006657 C-4.81392703e-14,3.58914346 3.58914348,0 8.00006659,0 C9.5338954,0 11.0261758,0.43705732 12.3156414,1.26469634 C12.5687937,1.42769395 12.6429683,1.76514161 12.4799707,2.0189598 C12.3164404,2.27277796 11.9796586,2.34615352 11.7258404,2.18328907 C10.6130887,1.46831018 9.32442217,1.0909121 8.00006659,1.0909121 C4.19053009,1.0909121 1.09091212,4.19053011 1.09091212,8.00006657 C1.09091212,11.8094699 4.19053009,14.9090879 8.00006659,14.9090879 C11.8094699,14.9090879 14.9090879,11.8094699 14.9090879,8.00006657 C14.9090879,7.77234934 14.8981681,7.54689592 14.8771276,7.32517123 C14.8480969,7.02474426 15.0676909,6.75854146 15.3673189,6.72951085 C15.6684117,6.70181191 15.9338155,6.92007425 15.9629793,7.21970219 C15.9876154,7.47645006 16,7.73679348 16,8.00006657 C16,12.4109897 12.4109897,16 8.00006659,16 Z M8.90907122,9.81820903 C8.76951118,9.81820903 8.62981797,9.76507504 8.5236831,9.6582743 L5.25094675,6.38553795 C5.03787797,6.17233601 5.03787797,5.82689828 5.25094675,5.61382951 C5.46401552,5.40076074 5.80945325,5.40076074 6.02252202,5.61382951 L8.90987025,8.5011777 L16.5236165,0.887298262 C16.7368184,0.674229489 17.0822562,0.674229489 17.295325,0.887298262 C17.5083937,1.10036704 17.5083937,1.4458048 17.295325,1.65887357 L9.29525837,9.65894016 C9.18832451,9.76507504 9.04876446,9.81820903 8.90907122,9.81820903 Z" id="Combined-Shape"></path>
            </g>
        </g>
    </g>
</svg>