<?xml version="1.0" encoding="UTF-8"?>
<svg width="42px" height="30px" viewBox="0 0 42 30" version="1.1" xmlns="http://www.w3.org/2000/svg" xmlns:xlink="http://www.w3.org/1999/xlink">
    <!-- Generator: Sketch 52.6 (67491) - http://www.bohemiancoding.com/sketch -->
    <title>youtube (1)</title>
    <desc>Created with Sketch.</desc>
    <g id="ASSETS" stroke="none" stroke-width="1" fill="none" fill-rule="evenodd">
        <g id="Footer" transform="translate(-1258.000000, -273.000000)" fill="#084c35" fill-rule="nonzero">
            <g id="Group-3" transform="translate(1141.000000, 92.000000)">
                <g id="youtube-(1)" transform="translate(117.000000, 181.000000)">
                    <path d="M20.9620052,0.000162163039 L20.9033022,2.30447538e-15 C20.9024914,2.30447538e-15 20.9018427,2.30447538e-15 20.9010319,2.30447538e-15 C20.4542727,2.30447538e-15 20.0914329,0.361542495 20.0902167,0.808625993 C20.0902167,0.809274645 20.0902167,0.809923297 20.0902167,0.810571949 C20.0900545,1.25749328 20.4516781,1.62041416 20.8988427,1.62163039 L20.9576268,1.62179255 C20.9583565,1.62179255 20.9590863,1.62179255 20.959816,1.62179255 C21.4065752,1.62179255 21.769415,1.26025006 21.7706312,0.813166558 C21.7706312,0.812517906 21.7706312,0.811869253 21.7706312,0.811220601 C21.7707934,0.364299266 21.4091698,0.00137838583 20.9620052,0.000162163039 Z" id="Path"></path>
                    <path d="M40.6535441,5.03572992 C40.1211628,3.01152979 38.5506949,1.41738604 36.5555219,0.875437165 C34.4980784,0.315082784 28.7619663,0.108730317 24.3122125,0.0343785642 C23.867075,0.0282974503 23.4953973,0.383839913 23.4879378,0.831572063 C23.4804783,1.27930421 23.8373991,1.64838729 24.2851313,1.65584679 C30.4440835,1.75882032 34.6504305,2.03733534 36.129925,2.44022941 C37.5675004,2.830718 38.6999659,3.9832918 39.0853464,5.4486781 C39.8823777,8.47164039 39.8921075,14.9349726 39.8921075,14.9998378 C39.8921075,15.0647841 39.8823777,21.5281164 39.0852653,24.5515651 C38.6999659,26.016465 37.5675004,27.1690388 36.1294385,27.5596895 C33.157963,28.3688831 20.8805183,28.3783696 20.756869,28.3783696 C20.6332196,28.3783696 8.3557749,28.368802 5.38381289,27.5595273 C3.94623755,27.1690388 2.81377197,26.016465 2.4283915,24.5510787 C1.63136017,21.5281164 1.62163039,15.0647841 1.62163039,14.9999189 C1.62163039,14.9349726 1.63136017,8.47164039 2.42847259,5.44827269 C2.81377197,3.98337288 3.94623755,2.83079909 5.38429937,2.44014833 C6.89622647,2.02841637 11.2269526,1.74795539 17.5788788,1.65025216 C18.026611,1.64344132 18.3839372,1.27484473 18.3771264,0.827112579 C18.3702344,0.379380429 18.0005027,0.024973108 17.5539057,0.0288650209 C12.9672052,0.0993248612 7.05879491,0.303488127 4.95870248,0.875356083 C2.96304304,1.41738604 1.3925751,3.01161087 0.860356002,5.03532452 C0.00981086384,8.26139601 0,14.7262688 0,14.9999189 C0,15.273569 0.00981086384,21.7384418 0.860193839,24.9640268 C1.3925751,26.988227 2.96304304,28.5823707 4.95821599,29.1243196 C8.1372602,29.990027 20.2431364,30 20.756869,30 C21.2706015,30 33.3764777,29.990027 36.5550354,29.1244818 C38.5506949,28.5824518 40.1211628,26.988227 40.6533819,24.9645133 C41.503927,21.7384418 41.5137379,15.273569 41.5137379,14.9999189 C41.5137379,14.7262688 41.503927,8.26139601 40.6535441,5.03572992 Z" id="Path"></path>
                    <path d="M4.70272812,12.8530424 C4.25491489,12.8530424 3.89191293,13.2160444 3.89191293,13.6638576 L3.89191293,20.2720015 C3.89191293,20.7198147 4.25491489,21.0828167 4.70272812,21.0828167 C5.15054135,21.0828167 5.51354332,20.7198147 5.51354332,20.2720015 L5.51354332,13.6638576 C5.51354332,13.2160444 5.15054135,12.8530424 4.70272812,12.8530424 Z" id="Path"></path>
                    <path d="M4.70272812,9.16383332 C4.25491489,9.16383332 3.89191293,9.52683528 3.89191293,9.97464851 L3.89191293,9.98421613 C3.89191293,10.4320294 4.25491489,10.7950313 4.70272812,10.7950313 C5.15054135,10.7950313 5.51354332,10.4320294 5.51354332,9.98421613 L5.51354332,9.97464851 C5.51354332,9.52683528 5.15054135,9.16383332 4.70272812,9.16383332 Z" id="Path"></path>
                    <path d="M27.3330667,14.422132 L17.2789583,8.58426262 C17.028092,8.43855913 16.7186039,8.43799156 16.4672512,8.58272207 C16.2158985,8.72745258 16.0609517,8.995427 16.0609517,9.2854556 L16.0609517,20.9611944 C16.0609517,21.2513041 16.2158985,21.5191974 16.4672512,21.6639279 C16.592441,21.7360094 16.7320634,21.7720096 16.8717669,21.7720096 C17.0124433,21.7720096 17.1531197,21.7355229 17.2789583,21.6623874 L27.3330667,15.824518 C27.583041,15.6793821 27.7367716,15.4122995 27.7367716,15.123325 C27.7367716,14.8343505 27.5829599,14.5672679 27.3330667,14.422132 Z M17.6825821,19.5528084 L17.6825821,10.6938416 L25.3111368,15.123325 L17.6825821,19.5528084 Z" id="Shape"></path>
                </g>
            </g>
        </g>
    </g>
</svg>